  0
SECTION
  2
HEADER
  9
$ACADVER
  1
AC1009
  9
$INSUNITS
 70
     1
  0
ENDSEC
  0
SECTION
  2
TABLES
  0
TABLE
  2
LAYER
 70
     8
  0
LAYER
  2
0
 62
     7
 70
0
  6
CONTINUOUS
  0
LAYER
  2
1
 62
     1
 70
0
  6
CONTINUOUS
  0
LAYER
  2
2
 62
     2
 70
0
  6
CONTINUOUS
  0
LAYER
  2
3
 62
     3
 70
0
  6
CONTINUOUS
  0
LAYER
  2
4
 62
     4
 70
0
  6
CONTINUOUS
  0
LAYER
  2
5
 62
     5
 70
0
  6
CONTINUOUS
  0
LAYER
  2
6
 62
     6
 70
0
  6
CONTINUOUS
  0
LAYER
  2
7
 62
     7
 70
0
  6
CONTINUOUS
  0
ENDTAB
  0
TABLE
  2
STYLE
 70
     1
  0
STYLE
 70
     0
  2
STANDARD
  3
TXT
 40
0.00
 41
1.00
 42
1.00
 50
0.00
 71
     0
  0
ENDTAB
  0
ENDSEC
  0
SECTION
  2
BLOCKS
  0
BLOCK
  8
0
  2
EPAD
 70
0
 10
0.0
 20
0.0
  0
POLYLINE
  8
0
 66
1
 70
1
 40
0.5
 41
0.5
  0
VERTEX
  8
0
 10
-0.25
 20
0.0
 42
1.0
  0
VERTEX
  8
0
 10
0.25
 20
0.0
 42
1.0
  0
SEQEND
  8
0
  0
ENDBLK
  8
0
  0
BLOCK
  8
0
  2
RPAD
 70
0
 10
0.0
 20
0.0
  0
TRACE
  8
0
 10
-0.5
 20
-0.5
 11
-0.5
 21
0.5
 12
0.5
 22
-0.5
 13
0.5
 23
0.5
  0
ENDBLK
  8
0
  0
ENDSEC
0
SECTION
2
ENTITIES
0
POLYLINE
8
0
66
1
40
0.016000
41
0.016000
0
VERTEX
8
0
10
-3.000000
20
3.000000
0
VERTEX
8
0
10
-3.000000
20
3.200000
0
SEQEND
8
0
0
POLYLINE
8
0
66
1
40
0.016000
41
0.016000
0
VERTEX
8
0
10
-3.100000
20
3.200000
0
VERTEX
8
0
10
-3.000000
20
3.200000
0
SEQEND
8
0
0
POLYLINE
8
0
66
1
40
0.016000
41
0.016000
0
VERTEX
8
0
10
-2.500000
20
2.800000
0
VERTEX
8
0
10
-2.600000
20
2.800000
0
VERTEX
8
0
10
-2.600000
20
3.200000
0
VERTEX
8
0
10
-3.000000
20
3.200000
0
SEQEND
8
0
0
POLYLINE
8
0
66
1
40
0.016000
41
0.016000
0
VERTEX
8
0
10
-2.750000
20
1.850000
0
VERTEX
8
0
10
-2.750000
20
1.900000
0
SEQEND
8
0
0
POLYLINE
8
0
66
1
40
0.016000
41
0.016000
0
VERTEX
8
0
10
-2.750000
20
1.400000
0
VERTEX
8
0
10
-2.750000
20
1.400000
0
SEQEND
8
0
0
POLYLINE
8
0
66
1
40
0.016000
41
0.016000
0
VERTEX
8
0
10
-2.500000
20
1.400000
0
VERTEX
8
0
10
-2.750000
20
1.400000
0
SEQEND
8
0
0
POLYLINE
8
0
66
1
40
0.016000
41
0.016000
0
VERTEX
8
0
10
-2.950000
20
1.100000
0
VERTEX
8
0
10
-2.750000
20
1.100000
0
VERTEX
8
0
10
-2.750000
20
1.400000
0
SEQEND
8
0
0
POLYLINE
8
0
66
1
40
0.016000
41
0.016000
0
VERTEX
8
0
10
-3.350000
20
1.100000
0
VERTEX
8
0
10
-3.550000
20
1.100000
0
SEQEND
8
0
0
POLYLINE
8
0
66
1
40
0.016000
41
0.016000
0
VERTEX
8
0
10
-3.550000
20
1.000000
0
VERTEX
8
0
10
-3.550000
20
1.100000
0
SEQEND
8
0
0
POLYLINE
8
0
66
1
40
0.016000
41
0.016000
0
VERTEX
8
0
10
-3.000000
20
2.600000
0
VERTEX
8
0
10
-3.000000
20
2.400000
0
SEQEND
8
0
0
POLYLINE
8
0
66
1
40
0.016000
41
0.016000
0
VERTEX
8
0
10
-3.100000
20
2.400000
0
VERTEX
8
0
10
-3.000000
20
2.400000
0
SEQEND
8
0
0
POLYLINE
8
0
66
1
40
0.016000
41
0.016000
0
VERTEX
8
0
10
-2.500000
20
2.700000
0
VERTEX
8
0
10
-2.600000
20
2.700000
0
VERTEX
8
0
10
-2.600000
20
2.400000
0
VERTEX
8
0
10
-3.000000
20
2.400000
0
SEQEND
8
0
0
POLYLINE
8
0
66
1
40
0.016000
41
0.016000
0
VERTEX
8
0
10
-3.500000
20
3.200000
0
VERTEX
8
0
10
-3.900000
20
3.200000
0
VERTEX
8
0
10
-3.900000
20
2.400000
0
SEQEND
8
0
0
POLYLINE
8
0
66
1
40
0.016000
41
0.016000
0
VERTEX
8
0
10
-3.500000
20
2.400000
0
VERTEX
8
0
10
-3.900000
20
2.400000
0
SEQEND
8
0
0
POLYLINE
8
0
66
1
40
0.016000
41
0.016000
0
VERTEX
8
0
10
-0.600000
20
0.400000
0
VERTEX
8
0
10
-0.400000
20
0.400000
0
SEQEND
8
0
0
TEXT
8
0
10
-0.500000
20
0.418000
40
0.080000
41
1.000000
1
D6
0
POLYLINE
8
0
66
1
40
0.016000
41
0.016000
0
VERTEX
8
0
10
-0.600000
20
0.500000
0
VERTEX
8
0
10
-0.400000
20
0.500000
0
SEQEND
8
0
0
TEXT
8
0
10
-0.500000
20
0.518000
40
0.080000
41
1.000000
1
D5
0
POLYLINE
8
0
66
1
40
0.016000
41
0.016000
0
VERTEX
8
0
10
-0.600000
20
0.600000
0
VERTEX
8
0
10
-0.400000
20
0.600000
0
SEQEND
8
0
0
TEXT
8
0
10
-0.500000
20
0.618000
40
0.080000
41
1.000000
1
D4
0
POLYLINE
8
0
66
1
40
0.016000
41
0.016000
0
VERTEX
8
0
10
4.350000
20
3.200000
0
VERTEX
8
0
10
4.350000
20
3.000000
0
SEQEND
8
0
0
TEXT
8
0
10
4.332000
20
3.200000
40
0.080000
41
1.000000
50
90.000000
1
VCC
0
POLYLINE
8
0
66
1
40
0.016000
41
0.016000
0
VERTEX
8
0
10
4.600000
20
3.200000
0
VERTEX
8
0
10
4.600000
20
3.000000
0
SEQEND
8
0
0
TEXT
8
0
10
4.582000
20
3.150000
40
0.080000
41
1.000000
50
90.000000
1
GND
0
POLYLINE
8
0
66
1
40
0.016000
41
0.016000
0
VERTEX
8
0
10
0.750000
20
1.800000
0
VERTEX
8
0
10
0.750000
20
2.050000
0
SEQEND
8
0
0
TEXT
8
0
10
0.732000
20
1.850000
40
0.080000
41
1.000000
50
90.000000
1
VCC
0
POLYLINE
8
0
66
1
40
0.016000
41
0.016000
0
VERTEX
8
0
10
0.350000
20
1.800000
0
VERTEX
8
0
10
0.350000
20
2.050000
0
SEQEND
8
0
0
TEXT
8
0
10
0.332000
20
1.850000
40
0.080000
41
1.000000
50
90.000000
1
GND
0
POLYLINE
8
0
66
1
40
0.016000
41
0.016000
0
VERTEX
8
0
10
0.550000
20
1.800000
0
VERTEX
8
0
10
0.550000
20
2.050000
0
SEQEND
8
0
0
TEXT
8
0
10
0.532000
20
1.850000
40
0.080000
41
1.000000
50
90.000000
1
TRIG
0
POLYLINE
8
0
66
1
40
0.016000
41
0.016000
0
VERTEX
8
0
10
0.650000
20
1.800000
0
VERTEX
8
0
10
0.650000
20
2.050000
0
SEQEND
8
0
0
TEXT
8
0
10
0.632000
20
1.850000
40
0.080000
41
1.000000
50
90.000000
1
ECHO
0
POLYLINE
8
0
66
1
40
0.016000
41
0.016000
0
VERTEX
8
0
10
2.300000
20
1.550000
0
VERTEX
8
0
10
2.250000
20
1.550000
0
SEQEND
8
0
0
POLYLINE
8
0
66
1
40
0.016000
41
0.016000
0
VERTEX
8
0
10
1.600000
20
1.550000
0
VERTEX
8
0
10
1.650000
20
1.550000
0
SEQEND
8
0
0
POLYLINE
8
0
66
1
40
0.016000
41
0.016000
0
VERTEX
8
0
10
-0.600000
20
2.800000
0
VERTEX
8
0
10
-0.450000
20
2.800000
0
SEQEND
8
0
0
TEXT
8
0
10
-0.500000
20
2.818000
40
0.080000
41
1.000000
1
TRIG
0
POLYLINE
8
0
66
1
40
0.016000
41
0.016000
0
VERTEX
8
0
10
-0.600000
20
2.700000
0
VERTEX
8
0
10
-0.450000
20
2.700000
0
SEQEND
8
0
0
TEXT
8
0
10
-0.500000
20
2.718000
40
0.080000
41
1.000000
1
ECHO
0
POLYLINE
8
0
66
1
40
0.016000
41
0.016000
0
VERTEX
8
0
10
-0.600000
20
1.500000
0
VERTEX
8
0
10
-0.400000
20
1.500000
0
SEQEND
8
0
0
TEXT
8
0
10
-0.500000
20
1.518000
40
0.080000
41
1.000000
1
C4
0
POLYLINE
8
0
66
1
40
0.016000
41
0.016000
0
VERTEX
8
0
10
-0.600000
20
1.400000
0
VERTEX
8
0
10
-0.400000
20
1.400000
0
SEQEND
8
0
0
TEXT
8
0
10
-0.500000
20
1.418000
40
0.080000
41
1.000000
1
C5
0
POLYLINE
8
0
66
1
40
0.016000
41
0.016000
0
VERTEX
8
0
10
-0.600000
20
1.300000
0
VERTEX
8
0
10
-0.400000
20
1.300000
0
SEQEND
8
0
0
TEXT
8
0
10
-0.500000
20
1.318000
40
0.080000
41
1.000000
1
C6
0
POLYLINE
8
0
66
1
40
0.016000
41
0.016000
0
VERTEX
8
0
10
-0.600000
20
1.200000
0
VERTEX
8
0
10
-0.400000
20
1.200000
0
SEQEND
8
0
0
TEXT
8
0
10
-0.500000
20
1.218000
40
0.080000
41
1.000000
1
C7
0
POLYLINE
8
0
66
1
40
0.016000
41
0.016000
0
VERTEX
8
0
10
-3.550000
20
1.100000
0
VERTEX
8
0
10
-3.550000
20
1.400000
0
VERTEX
8
0
10
-3.400000
20
1.400000
0
SEQEND
8
0
0
POLYLINE
8
0
66
1
40
0.016000
41
0.016000
0
VERTEX
8
0
10
-2.750000
20
1.400000
0
VERTEX
8
0
10
-2.900000
20
1.400000
0
SEQEND
8
0
0
POLYLINE
8
0
66
1
40
0.016000
41
0.016000
0
VERTEX
8
0
10
-3.900000
20
2.400000
0
VERTEX
8
0
10
-3.900000
20
2.200000
0
SEQEND
8
0
0
TEXT
8
0
10
-3.918000
20
2.250000
40
0.080000
41
1.000000
50
90.000000
1
GND
0
POLYLINE
8
0
66
1
40
0.016000
41
0.016000
0
VERTEX
8
0
10
-3.900000
20
2.300000
0
VERTEX
8
0
10
-3.900000
20
2.200000
0
SEQEND
8
0
0
POLYLINE
8
0
66
1
40
0.016000
41
0.016000
0
VERTEX
8
0
10
1.950000
20
1.750000
0
VERTEX
8
0
10
1.950000
20
2.000000
0
SEQEND
8
0
0
TEXT
8
0
10
1.932000
20
1.900000
40
0.080000
41
1.000000
50
90.000000
1
E
0
POLYLINE
8
0
66
1
40
0.016000
41
0.016000
0
VERTEX
8
0
10
1.750000
20
2.000000
0
VERTEX
8
0
10
1.750000
20
1.850000
0
SEQEND
8
0
0
TEXT
8
0
10
1.732000
20
1.900000
40
0.080000
41
1.000000
50
90.000000
1
GND
0
POLYLINE
8
0
66
1
40
0.016000
41
0.016000
0
VERTEX
8
0
10
1.850000
20
2.000000
0
VERTEX
8
0
10
1.850000
20
1.850000
0
SEQEND
8
0
0
TEXT
8
0
10
1.832000
20
1.900000
40
0.080000
41
1.000000
50
90.000000
1
5V
0
POLYLINE
8
0
66
1
40
0.016000
41
0.016000
0
VERTEX
8
0
10
2.150000
20
2.000000
0
VERTEX
8
0
10
2.150000
20
1.850000
0
SEQEND
8
0
0
TEXT
8
0
10
2.132000
20
1.900000
40
0.080000
41
1.000000
50
90.000000
1
D6
0
POLYLINE
8
0
66
1
40
0.016000
41
0.016000
0
VERTEX
8
0
10
2.250000
20
2.000000
0
VERTEX
8
0
10
2.250000
20
1.850000
0
SEQEND
8
0
0
TEXT
8
0
10
2.232000
20
1.900000
40
0.080000
41
1.000000
50
90.000000
1
D5
0
POLYLINE
8
0
66
1
40
0.016000
41
0.016000
0
VERTEX
8
0
10
2.350000
20
2.000000
0
VERTEX
8
0
10
2.350000
20
1.850000
0
SEQEND
8
0
0
TEXT
8
0
10
2.332000
20
1.900000
40
0.080000
41
1.000000
50
90.000000
1
D4
0
POLYLINE
8
0
66
1
40
0.016000
41
0.016000
0
VERTEX
8
0
10
2.950000
20
2.000000
0
VERTEX
8
0
10
2.950000
20
1.850000
0
SEQEND
8
0
0
TEXT
8
0
10
2.932000
20
1.900000
40
0.080000
41
1.000000
50
90.000000
1
C7
0
POLYLINE
8
0
66
1
40
0.016000
41
0.016000
0
VERTEX
8
0
10
3.050000
20
2.000000
0
VERTEX
8
0
10
3.050000
20
1.850000
0
SEQEND
8
0
0
TEXT
8
0
10
3.032000
20
1.900000
40
0.080000
41
1.000000
50
90.000000
1
C6
0
POLYLINE
8
0
66
1
40
0.016000
41
0.016000
0
VERTEX
8
0
10
3.150000
20
2.000000
0
VERTEX
8
0
10
3.150000
20
1.850000
0
SEQEND
8
0
0
TEXT
8
0
10
3.132000
20
1.900000
40
0.080000
41
1.000000
50
90.000000
1
C5
0
POLYLINE
8
0
66
1
40
0.016000
41
0.016000
0
VERTEX
8
0
10
3.250000
20
2.000000
0
VERTEX
8
0
10
3.250000
20
1.850000
0
SEQEND
8
0
0
TEXT
8
0
10
3.232000
20
1.900000
40
0.080000
41
1.000000
50
90.000000
1
C4
0
POLYLINE
8
0
66
1
40
0.016000
41
0.016000
0
VERTEX
8
0
10
2.100000
20
-0.650000
0
VERTEX
8
0
10
1.950000
20
-0.650000
0
SEQEND
8
0
0
POLYLINE
8
0
66
1
40
0.016000
41
0.016000
0
VERTEX
8
0
10
1.950000
20
-0.800000
0
VERTEX
8
0
10
1.950000
20
-0.650000
0
SEQEND
8
0
0
POLYLINE
8
0
66
1
40
0.016000
41
0.016000
0
VERTEX
8
0
10
1.550000
20
-1.250000
0
VERTEX
8
0
10
1.550000
20
-1.200000
0
SEQEND
8
0
0
POLYLINE
8
0
66
1
40
0.016000
41
0.016000
0
VERTEX
8
0
10
2.700000
20
-1.150000
0
VERTEX
8
0
10
2.700000
20
-1.600000
0
VERTEX
8
0
10
1.950000
20
-1.600000
0
SEQEND
8
0
0
POLYLINE
8
0
66
1
40
0.016000
41
0.016000
0
VERTEX
8
0
10
1.950000
20
-1.200000
0
VERTEX
8
0
10
1.950000
20
-1.600000
0
SEQEND
8
0
0
POLYLINE
8
0
66
1
40
0.016000
41
0.016000
0
VERTEX
8
0
10
1.550000
20
-0.750000
0
VERTEX
8
0
10
1.550000
20
-0.650000
0
SEQEND
8
0
0
POLYLINE
8
0
66
1
40
0.016000
41
0.016000
0
VERTEX
8
0
10
1.950000
20
-0.650000
0
VERTEX
8
0
10
1.550000
20
-0.650000
0
SEQEND
8
0
0
POLYLINE
8
0
66
1
40
0.016000
41
0.016000
0
VERTEX
8
0
10
1.950000
20
-1.600000
0
VERTEX
8
0
10
1.550000
20
-1.600000
0
VERTEX
8
0
10
1.550000
20
-1.600000
0
SEQEND
8
0
0
POLYLINE
8
0
66
1
40
0.016000
41
0.016000
0
VERTEX
8
0
10
3.300000
20
-0.650000
0
VERTEX
8
0
10
3.400000
20
-0.650000
0
SEQEND
8
0
0
POLYLINE
8
0
66
1
40
0.016000
41
0.016000
0
VERTEX
8
0
10
3.400000
20
-0.800000
0
VERTEX
8
0
10
3.400000
20
-0.650000
0
SEQEND
8
0
0
POLYLINE
8
0
66
1
40
0.016000
41
0.016000
0
VERTEX
8
0
10
2.700000
20
-1.600000
0
VERTEX
8
0
10
3.400000
20
-1.600000
0
SEQEND
8
0
0
POLYLINE
8
0
66
1
40
0.016000
41
0.016000
0
VERTEX
8
0
10
3.400000
20
-1.200000
0
VERTEX
8
0
10
3.400000
20
-1.600000
0
SEQEND
8
0
0
POLYLINE
8
0
66
1
40
0.016000
41
0.016000
0
VERTEX
8
0
10
0.950000
20
-1.100000
0
VERTEX
8
0
10
0.950000
20
-0.650000
0
VERTEX
8
0
10
1.550000
20
-0.650000
0
SEQEND
8
0
0
POLYLINE
8
0
66
1
40
0.016000
41
0.016000
0
VERTEX
8
0
10
0.950000
20
-1.200000
0
VERTEX
8
0
10
0.950000
20
-1.600000
0
VERTEX
8
0
10
1.550000
20
-1.600000
0
SEQEND
8
0
0
POLYLINE
8
0
66
1
40
0.016000
41
0.016000
0
VERTEX
8
0
10
0.850000
20
0.100000
0
VERTEX
8
0
10
0.850000
20
0.000000
0
SEQEND
8
0
0
TEXT
8
0
10
0.948000
20
-0.110000
40
0.080000
41
1.000000
50
90.000000
1
5V
0
POLYLINE
8
0
66
1
40
0.016000
41
0.016000
0
VERTEX
8
0
10
0.750000
20
0.100000
0
VERTEX
8
0
10
0.750000
20
0.000000
0
SEQEND
8
0
0
TEXT
8
0
10
0.848000
20
-0.270000
40
0.080000
41
1.000000
50
90.000000
1
TRIG
0
POLYLINE
8
0
66
1
40
0.016000
41
0.016000
0
VERTEX
8
0
10
0.650000
20
0.100000
0
VERTEX
8
0
10
0.650000
20
0.000000
0
SEQEND
8
0
0
TEXT
8
0
10
0.748000
20
-0.270000
40
0.080000
41
1.000000
50
90.000000
1
ECHO
0
POLYLINE
8
0
66
1
40
0.016000
41
0.016000
0
VERTEX
8
0
10
0.550000
20
0.100000
0
VERTEX
8
0
10
0.550000
20
0.000000
0
SEQEND
8
0
0
TEXT
8
0
10
0.648000
20
-0.190000
40
0.080000
41
1.000000
50
90.000000
1
GND
0
POLYLINE
8
0
66
1
40
0.016000
41
0.016000
0
VERTEX
8
0
10
0.950000
20
-1.600000
0
VERTEX
8
0
10
0.850000
20
-1.600000
0
SEQEND
8
0
0
TEXT
8
0
10
0.900000
20
-1.582000
40
0.080000
41
1.000000
1
GND
0
POLYLINE
8
0
66
1
40
0.016000
41
0.016000
0
VERTEX
8
0
10
1.200000
20
-0.100000
0
VERTEX
8
0
10
1.200000
20
-0.200000
0
SEQEND
8
0
0
TEXT
8
0
10
1.182000
20
-0.150000
40
0.080000
41
1.000000
50
90.000000
1
GND
0
POLYLINE
8
0
66
1
40
0.016000
41
0.016000
0
VERTEX
8
0
10
1.300000
20
-0.100000
0
VERTEX
8
0
10
1.300000
20
-0.200000
0
SEQEND
8
0
0
TEXT
8
0
10
1.282000
20
-0.150000
40
0.080000
41
1.000000
50
90.000000
1
5V
0
POLYLINE
8
0
66
1
40
0.016000
41
0.016000
0
VERTEX
8
0
10
1.400000
20
-0.100000
0
VERTEX
8
0
10
1.400000
20
-0.200000
0
SEQEND
8
0
0
TEXT
8
0
10
1.382000
20
-0.100000
40
0.080000
41
1.000000
50
90.000000
1
E
0
POLYLINE
8
0
66
1
40
0.016000
41
0.016000
0
VERTEX
8
0
10
1.500000
20
-0.100000
0
VERTEX
8
0
10
1.500000
20
-0.200000
0
SEQEND
8
0
0
TEXT
8
0
10
1.482000
20
-0.150000
40
0.080000
41
1.000000
50
90.000000
1
D6
0
POLYLINE
8
0
66
1
40
0.016000
41
0.016000
0
VERTEX
8
0
10
1.600000
20
-0.100000
0
VERTEX
8
0
10
1.600000
20
-0.200000
0
SEQEND
8
0
0
TEXT
8
0
10
1.582000
20
-0.150000
40
0.080000
41
1.000000
50
90.000000
1
D5
0
POLYLINE
8
0
66
1
40
0.016000
41
0.016000
0
VERTEX
8
0
10
1.700000
20
-0.100000
0
VERTEX
8
0
10
1.700000
20
-0.200000
0
SEQEND
8
0
0
TEXT
8
0
10
1.682000
20
-0.150000
40
0.080000
41
1.000000
50
90.000000
1
D4
0
POLYLINE
8
0
66
1
40
0.016000
41
0.016000
0
VERTEX
8
0
10
2.500000
20
-0.100000
0
VERTEX
8
0
10
2.500000
20
-0.200000
0
SEQEND
8
0
0
TEXT
8
0
10
2.482000
20
-0.150000
40
0.080000
41
1.000000
50
90.000000
1
C4
0
POLYLINE
8
0
66
1
40
0.016000
41
0.016000
0
VERTEX
8
0
10
2.400000
20
-0.100000
0
VERTEX
8
0
10
2.400000
20
-0.200000
0
SEQEND
8
0
0
TEXT
8
0
10
2.382000
20
-0.150000
40
0.080000
41
1.000000
50
90.000000
1
C5
0
POLYLINE
8
0
66
1
40
0.016000
41
0.016000
0
VERTEX
8
0
10
2.300000
20
-0.100000
0
VERTEX
8
0
10
2.300000
20
-0.200000
0
SEQEND
8
0
0
TEXT
8
0
10
2.282000
20
-0.150000
40
0.080000
41
1.000000
50
90.000000
1
C6
0
POLYLINE
8
0
66
1
40
0.016000
41
0.016000
0
VERTEX
8
0
10
2.200000
20
-0.100000
0
VERTEX
8
0
10
2.200000
20
-0.200000
0
SEQEND
8
0
0
TEXT
8
0
10
2.182000
20
-0.150000
40
0.080000
41
1.000000
50
90.000000
1
C7
0
POLYLINE
8
0
66
1
40
0.016000
41
0.016000
0
VERTEX
8
0
10
2.700000
20
-0.100000
0
VERTEX
8
0
10
2.700000
20
-0.200000
0
SEQEND
8
0
0
TEXT
8
0
10
2.682000
20
-0.150000
40
0.080000
41
1.000000
50
90.000000
1
5V
0
POLYLINE
8
0
66
1
40
0.016000
41
0.016000
0
VERTEX
8
0
10
2.800000
20
-0.100000
0
VERTEX
8
0
10
2.800000
20
-0.200000
0
SEQEND
8
0
0
TEXT
8
0
10
2.782000
20
-0.150000
40
0.080000
41
1.000000
50
90.000000
1
GND
0
POLYLINE
8
0
66
1
40
0.016000
41
0.016000
0
VERTEX
8
0
10
3.400000
20
-0.650000
0
VERTEX
8
0
10
3.900000
20
-0.650000
0
SEQEND
8
0
0
TEXT
8
0
10
3.900000
20
-0.632000
40
0.080000
41
1.000000
1
5V
0
POLYLINE
8
0
66
1
40
0.016000
41
0.016000
0
VERTEX
8
0
10
3.900000
20
-0.650000
0
VERTEX
8
0
10
3.900000
20
-0.650000
0
SEQEND
8
0
0
POLYLINE
8
0
66
1
40
0.016000
41
0.016000
0
VERTEX
8
0
10
4.150000
20
-1.050000
0
VERTEX
8
0
10
3.900000
20
-1.050000
0
VERTEX
8
0
10
3.900000
20
-0.650000
0
SEQEND
8
0
0
POLYLINE
8
0
66
1
40
0.016000
41
0.016000
0
VERTEX
8
0
10
3.400000
20
-1.600000
0
VERTEX
8
0
10
3.900000
20
-1.600000
0
SEQEND
8
0
0
TEXT
8
0
10
3.900000
20
-1.582000
40
0.080000
41
1.000000
1
GND
0
POLYLINE
8
0
66
1
40
0.016000
41
0.016000
0
VERTEX
8
0
10
3.900000
20
-1.600000
0
VERTEX
8
0
10
3.900000
20
-1.600000
0
SEQEND
8
0
0
POLYLINE
8
0
66
1
40
0.016000
41
0.016000
0
VERTEX
8
0
10
4.150000
20
-1.150000
0
VERTEX
8
0
10
3.900000
20
-1.150000
0
VERTEX
8
0
10
3.900000
20
-1.600000
0
SEQEND
8
0
0
POLYLINE
8
0
66
1
40
0.016000
41
0.016000
0
VERTEX
8
0
10
0.950000
20
-0.550000
0
VERTEX
8
0
10
0.950000
20
-0.650000
0
SEQEND
8
0
0
POLYLINE
8
0
66
1
40
0.016000
41
0.016000
0
VERTEX
8
0
10
0.850000
20
-1.600000
0
VERTEX
8
0
10
0.850000
20
-1.600000
0
SEQEND
8
0
0
POLYLINE
8
0
66
1
40
0.016000
41
0.016000
0
VERTEX
8
0
10
-2.300000
20
0.200000
0
VERTEX
8
0
10
-0.800000
20
0.200000
0
VERTEX
8
0
10
-0.800000
20
2.900000
0
VERTEX
8
0
10
-2.300000
20
2.900000
0
VERTEX
8
0
10
-2.300000
20
0.200000
0
SEQEND
8
0
0
POLYLINE
8
0
66
1
40
0.016000
41
0.016000
0
VERTEX
8
0
10
-2.500000
20
2.500000
0
VERTEX
8
0
10
-2.300000
20
2.500000
0
SEQEND
8
0
0
TEXT
8
0
10
-2.250000
20
2.460000
40
0.080000
41
1.000000
1
RA0/AN0
0
TEXT
8
0
10
-2.480000
20
2.510000
40
0.080000
41
1.000000
1
2
0
POLYLINE
8
0
66
1
40
0.016000
41
0.016000
0
VERTEX
8
0
10
-2.500000
20
2.400000
0
VERTEX
8
0
10
-2.300000
20
2.400000
0
SEQEND
8
0
0
TEXT
8
0
10
-2.250000
20
2.360000
40
0.080000
41
1.000000
1
RA1/AN1
0
TEXT
8
0
10
-2.480000
20
2.410000
40
0.080000
41
1.000000
1
3
0
POLYLINE
8
0
66
1
40
0.016000
41
0.016000
0
VERTEX
8
0
10
-2.500000
20
2.300000
0
VERTEX
8
0
10
-2.300000
20
2.300000
0
SEQEND
8
0
0
TEXT
8
0
10
-2.250000
20
2.260000
40
0.080000
41
1.000000
1
RA2/AN2/VREF-/CVREF
0
TEXT
8
0
10
-2.480000
20
2.310000
40
0.080000
41
1.000000
1
4
0
POLYLINE
8
0
66
1
40
0.016000
41
0.016000
0
VERTEX
8
0
10
-2.500000
20
2.100000
0
VERTEX
8
0
10
-2.300000
20
2.100000
0
SEQEND
8
0
0
TEXT
8
0
10
-2.250000
20
2.060000
40
0.080000
41
1.000000
1
RA4/T0CKI/C1OUT
0
TEXT
8
0
10
-2.480000
20
2.110000
40
0.080000
41
1.000000
1
6
0
POLYLINE
8
0
66
1
40
0.016000
41
0.016000
0
VERTEX
8
0
10
-2.500000
20
2.000000
0
VERTEX
8
0
10
-2.300000
20
2.000000
0
SEQEND
8
0
0
TEXT
8
0
10
-2.250000
20
1.960000
40
0.080000
41
1.000000
1
RA5/AN4/SS/C2OUT
0
TEXT
8
0
10
-2.480000
20
2.010000
40
0.080000
41
1.000000
1
7
0
POLYLINE
8
0
66
1
40
0.016000
41
0.016000
0
VERTEX
8
0
10
-2.500000
20
1.800000
0
VERTEX
8
0
10
-2.300000
20
1.800000
0
SEQEND
8
0
0
TEXT
8
0
10
-2.250000
20
1.760000
40
0.080000
41
1.000000
1
RE0/AN5/RD
0
TEXT
8
0
10
-2.480000
20
1.810000
40
0.080000
41
1.000000
1
8
0
POLYLINE
8
0
66
1
40
0.016000
41
0.016000
0
VERTEX
8
0
10
-2.500000
20
1.700000
0
VERTEX
8
0
10
-2.300000
20
1.700000
0
SEQEND
8
0
0
TEXT
8
0
10
-2.250000
20
1.660000
40
0.080000
41
1.000000
1
RE1/AN6/WR
0
TEXT
8
0
10
-2.480000
20
1.710000
40
0.080000
41
1.000000
1
9
0
POLYLINE
8
0
66
1
40
0.016000
41
0.016000
0
VERTEX
8
0
10
-2.500000
20
1.600000
0
VERTEX
8
0
10
-2.300000
20
1.600000
0
SEQEND
8
0
0
TEXT
8
0
10
-2.250000
20
1.560000
40
0.080000
41
1.000000
1
RE2/AN7/CS
0
TEXT
8
0
10
-2.560000
20
1.610000
40
0.080000
41
1.000000
1
10
0
POLYLINE
8
0
66
1
40
0.016000
41
0.016000
0
VERTEX
8
0
10
-2.500000
20
2.800000
0
VERTEX
8
0
10
-2.300000
20
2.800000
0
SEQEND
8
0
0
TEXT
8
0
10
-2.250000
20
2.760000
40
0.080000
41
1.000000
1
OSC1/CLKIN
0
TEXT
8
0
10
-2.560000
20
2.810000
40
0.080000
41
1.000000
1
13
0
POLYLINE
8
0
66
1
40
0.016000
41
0.016000
0
VERTEX
8
0
10
-2.500000
20
2.700000
0
VERTEX
8
0
10
-2.300000
20
2.700000
0
SEQEND
8
0
0
TEXT
8
0
10
-2.250000
20
2.660000
40
0.080000
41
1.000000
1
OSC2/CLKOUT
0
TEXT
8
0
10
-2.560000
20
2.710000
40
0.080000
41
1.000000
1
14
0
POLYLINE
8
0
66
1
40
0.016000
41
0.016000
0
VERTEX
8
0
10
-0.600000
20
1.800000
0
VERTEX
8
0
10
-0.800000
20
1.800000
0
SEQEND
8
0
0
TEXT
8
0
10
-1.970000
20
1.760000
40
0.080000
41
1.000000
1
RC1/T1OSI/CCP2
0
TEXT
8
0
10
-0.700000
20
1.810000
40
0.080000
41
1.000000
1
16
0
POLYLINE
8
0
66
1
40
0.016000
41
0.016000
0
VERTEX
8
0
10
-0.600000
20
1.700000
0
VERTEX
8
0
10
-0.800000
20
1.700000
0
SEQEND
8
0
0
TEXT
8
0
10
-1.490000
20
1.660000
40
0.080000
41
1.000000
1
RC2/CCP1
0
TEXT
8
0
10
-0.700000
20
1.710000
40
0.080000
41
1.000000
1
17
0
POLYLINE
8
0
66
1
40
0.016000
41
0.016000
0
VERTEX
8
0
10
-0.600000
20
1.600000
0
VERTEX
8
0
10
-0.800000
20
1.600000
0
SEQEND
8
0
0
TEXT
8
0
10
-1.730000
20
1.560000
40
0.080000
41
1.000000
1
RC3/SCK/SCL
0
TEXT
8
0
10
-0.700000
20
1.610000
40
0.080000
41
1.000000
1
18
0
POLYLINE
8
0
66
1
40
0.016000
41
0.016000
0
VERTEX
8
0
10
-0.600000
20
1.000000
0
VERTEX
8
0
10
-0.800000
20
1.000000
0
SEQEND
8
0
0
TEXT
8
0
10
-1.490000
20
0.960000
40
0.080000
41
1.000000
1
RD0/PSP0
0
TEXT
8
0
10
-0.700000
20
1.010000
40
0.080000
41
1.000000
1
19
0
POLYLINE
8
0
66
1
40
0.016000
41
0.016000
0
VERTEX
8
0
10
-0.600000
20
0.900000
0
VERTEX
8
0
10
-0.800000
20
0.900000
0
SEQEND
8
0
0
TEXT
8
0
10
-1.490000
20
0.860000
40
0.080000
41
1.000000
1
RD1/PSP1
0
TEXT
8
0
10
-0.700000
20
0.910000
40
0.080000
41
1.000000
1
20
0
POLYLINE
8
0
66
1
40
0.016000
41
0.016000
0
VERTEX
8
0
10
-0.600000
20
2.100000
0
VERTEX
8
0
10
-0.800000
20
2.100000
0
SEQEND
8
0
0
TEXT
8
0
10
-1.410000
20
2.060000
40
0.080000
41
1.000000
1
RB7/PGD
0
TEXT
8
0
10
-0.700000
20
2.110000
40
0.080000
41
1.000000
1
40
0
POLYLINE
8
0
66
1
40
0.016000
41
0.016000
0
VERTEX
8
0
10
-0.600000
20
2.200000
0
VERTEX
8
0
10
-0.800000
20
2.200000
0
SEQEND
8
0
0
TEXT
8
0
10
-1.410000
20
2.160000
40
0.080000
41
1.000000
1
RB6/PGC
0
TEXT
8
0
10
-0.700000
20
2.210000
40
0.080000
41
1.000000
1
39
0
POLYLINE
8
0
66
1
40
0.016000
41
0.016000
0
VERTEX
8
0
10
-0.600000
20
2.300000
0
VERTEX
8
0
10
-0.800000
20
2.300000
0
SEQEND
8
0
0
TEXT
8
0
10
-1.090000
20
2.260000
40
0.080000
41
1.000000
1
RB5
0
TEXT
8
0
10
-0.700000
20
2.310000
40
0.080000
41
1.000000
1
38
0
POLYLINE
8
0
66
1
40
0.016000
41
0.016000
0
VERTEX
8
0
10
-0.600000
20
2.400000
0
VERTEX
8
0
10
-0.800000
20
2.400000
0
SEQEND
8
0
0
TEXT
8
0
10
-1.090000
20
2.360000
40
0.080000
41
1.000000
1
RB4
0
TEXT
8
0
10
-0.700000
20
2.410000
40
0.080000
41
1.000000
1
37
0
POLYLINE
8
0
66
1
40
0.016000
41
0.016000
0
VERTEX
8
0
10
-0.600000
20
2.500000
0
VERTEX
8
0
10
-0.800000
20
2.500000
0
SEQEND
8
0
0
TEXT
8
0
10
-1.410000
20
2.460000
40
0.080000
41
1.000000
1
RB3/PGM
0
TEXT
8
0
10
-0.700000
20
2.510000
40
0.080000
41
1.000000
1
36
0
POLYLINE
8
0
66
1
40
0.016000
41
0.016000
0
VERTEX
8
0
10
-0.600000
20
2.600000
0
VERTEX
8
0
10
-0.800000
20
2.600000
0
SEQEND
8
0
0
TEXT
8
0
10
-1.090000
20
2.560000
40
0.080000
41
1.000000
1
RB2
0
TEXT
8
0
10
-0.700000
20
2.610000
40
0.080000
41
1.000000
1
35
0
POLYLINE
8
0
66
1
40
0.016000
41
0.016000
0
VERTEX
8
0
10
-0.600000
20
2.700000
0
VERTEX
8
0
10
-0.800000
20
2.700000
0
SEQEND
8
0
0
TEXT
8
0
10
-1.090000
20
2.660000
40
0.080000
41
1.000000
1
RB1
0
TEXT
8
0
10
-0.700000
20
2.710000
40
0.080000
41
1.000000
1
34
0
POLYLINE
8
0
66
1
40
0.016000
41
0.016000
0
VERTEX
8
0
10
-0.600000
20
2.800000
0
VERTEX
8
0
10
-0.800000
20
2.800000
0
SEQEND
8
0
0
TEXT
8
0
10
-1.410000
20
2.760000
40
0.080000
41
1.000000
1
RB0/INT
0
TEXT
8
0
10
-0.700000
20
2.810000
40
0.080000
41
1.000000
1
33
0
POLYLINE
8
0
66
1
40
0.016000
41
0.016000
0
VERTEX
8
0
10
-0.600000
20
0.300000
0
VERTEX
8
0
10
-0.800000
20
0.300000
0
SEQEND
8
0
0
TEXT
8
0
10
-1.490000
20
0.260000
40
0.080000
41
1.000000
1
RD7/PSP7
0
TEXT
8
0
10
-0.700000
20
0.310000
40
0.080000
41
1.000000
1
30
0
POLYLINE
8
0
66
1
40
0.016000
41
0.016000
0
VERTEX
8
0
10
-0.600000
20
0.400000
0
VERTEX
8
0
10
-0.800000
20
0.400000
0
SEQEND
8
0
0
TEXT
8
0
10
-1.490000
20
0.360000
40
0.080000
41
1.000000
1
RD6/PSP6
0
TEXT
8
0
10
-0.700000
20
0.410000
40
0.080000
41
1.000000
1
29
0
POLYLINE
8
0
66
1
40
0.016000
41
0.016000
0
VERTEX
8
0
10
-0.600000
20
0.500000
0
VERTEX
8
0
10
-0.800000
20
0.500000
0
SEQEND
8
0
0
TEXT
8
0
10
-1.490000
20
0.460000
40
0.080000
41
1.000000
1
RD5/PSP5
0
TEXT
8
0
10
-0.700000
20
0.510000
40
0.080000
41
1.000000
1
28
0
POLYLINE
8
0
66
1
40
0.016000
41
0.016000
0
VERTEX
8
0
10
-0.600000
20
0.600000
0
VERTEX
8
0
10
-0.800000
20
0.600000
0
SEQEND
8
0
0
TEXT
8
0
10
-1.490000
20
0.560000
40
0.080000
41
1.000000
1
RD4/PSP4
0
TEXT
8
0
10
-0.700000
20
0.610000
40
0.080000
41
1.000000
1
27
0
POLYLINE
8
0
66
1
40
0.016000
41
0.016000
0
VERTEX
8
0
10
-0.600000
20
0.700000
0
VERTEX
8
0
10
-0.800000
20
0.700000
0
SEQEND
8
0
0
TEXT
8
0
10
-1.490000
20
0.660000
40
0.080000
41
1.000000
1
RD3/PSP3
0
TEXT
8
0
10
-0.700000
20
0.710000
40
0.080000
41
1.000000
1
22
0
POLYLINE
8
0
66
1
40
0.016000
41
0.016000
0
VERTEX
8
0
10
-0.600000
20
0.800000
0
VERTEX
8
0
10
-0.800000
20
0.800000
0
SEQEND
8
0
0
TEXT
8
0
10
-1.490000
20
0.760000
40
0.080000
41
1.000000
1
RD2/PSP2
0
TEXT
8
0
10
-0.700000
20
0.810000
40
0.080000
41
1.000000
1
21
0
POLYLINE
8
0
66
1
40
0.016000
41
0.016000
0
VERTEX
8
0
10
-0.600000
20
1.200000
0
VERTEX
8
0
10
-0.800000
20
1.200000
0
SEQEND
8
0
0
TEXT
8
0
10
-1.570000
20
1.160000
40
0.080000
41
1.000000
1
RC7/RX/DT
0
TEXT
8
0
10
-0.700000
20
1.210000
40
0.080000
41
1.000000
1
26
0
POLYLINE
8
0
66
1
40
0.016000
41
0.016000
0
VERTEX
8
0
10
-0.600000
20
1.300000
0
VERTEX
8
0
10
-0.800000
20
1.300000
0
SEQEND
8
0
0
TEXT
8
0
10
-1.570000
20
1.260000
40
0.080000
41
1.000000
1
RC6/TX/CK
0
TEXT
8
0
10
-0.700000
20
1.310000
40
0.080000
41
1.000000
1
25
0
POLYLINE
8
0
66
1
40
0.016000
41
0.016000
0
VERTEX
8
0
10
-0.600000
20
1.400000
0
VERTEX
8
0
10
-0.800000
20
1.400000
0
SEQEND
8
0
0
TEXT
8
0
10
-1.410000
20
1.360000
40
0.080000
41
1.000000
1
RC5/SDO
0
TEXT
8
0
10
-0.700000
20
1.410000
40
0.080000
41
1.000000
1
24
0
POLYLINE
8
0
66
1
40
0.016000
41
0.016000
0
VERTEX
8
0
10
-0.600000
20
1.500000
0
VERTEX
8
0
10
-0.800000
20
1.500000
0
SEQEND
8
0
0
TEXT
8
0
10
-1.730000
20
1.460000
40
0.080000
41
1.000000
1
RC4/SDI/SDA
0
TEXT
8
0
10
-0.700000
20
1.510000
40
0.080000
41
1.000000
1
23
0
POLYLINE
8
0
66
1
40
0.016000
41
0.016000
0
VERTEX
8
0
10
-2.500000
20
2.200000
0
VERTEX
8
0
10
-2.300000
20
2.200000
0
SEQEND
8
0
0
TEXT
8
0
10
-2.250000
20
2.160000
40
0.080000
41
1.000000
1
RA3/AN3/VREF+
0
TEXT
8
0
10
-2.480000
20
2.210000
40
0.080000
41
1.000000
1
5
0
POLYLINE
8
0
66
1
40
0.016000
41
0.016000
0
VERTEX
8
0
10
-0.600000
20
1.900000
0
VERTEX
8
0
10
-0.800000
20
1.900000
0
SEQEND
8
0
0
TEXT
8
0
10
-2.050000
20
1.860000
40
0.080000
41
1.000000
1
RC0/T1OSO/T1CKI
0
TEXT
8
0
10
-0.700000
20
1.910000
40
0.080000
41
1.000000
1
15
0
POLYLINE
8
0
66
1
40
0.016000
41
0.016000
0
VERTEX
8
0
10
-2.500000
20
1.400000
0
VERTEX
8
0
10
-2.300000
20
1.400000
0
SEQEND
8
0
0
TEXT
8
0
10
-2.250000
20
1.360000
40
0.080000
41
1.000000
1
MCLR/Vpp/THV
0
TEXT
8
0
10
-2.480000
20
1.410000
40
0.080000
41
1.000000
1
1
0
TEXT
8
0
10
-2.308000
20
2.923000
40
0.120000
41
0.666667
1
U1
0
TEXT
8
0
10
-2.308000
20
0.102000
40
0.080000
41
1.000000
1
PIC16F877A
0
TEXT
8
0
10
-2.308000
20
0.002000
40
0.080000
41
1.000000
1
20MHz
0
POLYLINE
8
0
66
1
40
0.016000
41
0.016000
0
VERTEX
8
0
10
-2.850000
20
2.900000
0
VERTEX
8
0
10
-3.150000
20
2.900000
0
SEQEND
8
0
0
POLYLINE
8
0
66
1
40
0.016000
41
0.016000
0
VERTEX
8
0
10
-2.850000
20
2.700000
0
VERTEX
8
0
10
-3.150000
20
2.700000
0
SEQEND
8
0
0
POLYLINE
8
0
66
1
40
0.016000
41
0.016000
0
VERTEX
8
0
10
-3.100000
20
2.750000
0
VERTEX
8
0
10
-2.900000
20
2.750000
0
VERTEX
8
0
10
-2.900000
20
2.850000
0
VERTEX
8
0
10
-3.100000
20
2.850000
0
VERTEX
8
0
10
-3.100000
20
2.750000
0
SEQEND
8
0
0
POLYLINE
8
0
66
1
40
0.016000
41
0.016000
0
VERTEX
8
0
10
-3.000000
20
3.000000
0
VERTEX
8
0
10
-3.000000
20
2.900000
0
SEQEND
8
0
0
TEXT
8
0
10
-3.010000
20
3.000000
40
0.080000
41
1.000000
50
90.000000
1
1
0
POLYLINE
8
0
66
1
40
0.016000
41
0.016000
0
VERTEX
8
0
10
-3.000000
20
2.600000
0
VERTEX
8
0
10
-3.000000
20
2.700000
0
SEQEND
8
0
0
TEXT
8
0
10
-3.010000
20
2.520000
40
0.080000
41
1.000000
50
90.000000
1
2
0
TEXT
8
0
10
-3.392000
20
2.768000
40
0.080000
41
1.000000
1
20MHz
0
POLYLINE
8
0
66
1
40
0.016000
41
0.016000
0
VERTEX
8
0
10
-3.350000
20
2.500000
0
VERTEX
8
0
10
-3.350000
20
2.300000
0
SEQEND
8
0
0
POLYLINE
8
0
66
1
40
0.016000
41
0.016000
0
VERTEX
8
0
10
-3.300000
20
2.400000
0
VERTEX
8
0
10
-3.299082
20
2.418652
0
VERTEX
8
0
10
-3.296406
20
2.436719
0
VERTEX
8
0
10
-3.292090
20
2.453613
0
VERTEX
8
0
10
-3.286250
20
2.468750
0
VERTEX
8
0
10
-3.279004
20
2.481543
0
VERTEX
8
0
10
-3.270469
20
2.491406
0
VERTEX
8
0
10
-3.260762
20
2.497754
0
VERTEX
8
0
10
-3.250000
20
2.500000
0
SEQEND
8
0
0
POLYLINE
8
0
66
1
40
0.016000
41
0.016000
0
VERTEX
8
0
10
-3.300000
20
2.400000
0
VERTEX
8
0
10
-3.299082
20
2.381348
0
VERTEX
8
0
10
-3.296406
20
2.363281
0
VERTEX
8
0
10
-3.292090
20
2.346387
0
VERTEX
8
0
10
-3.286250
20
2.331250
0
VERTEX
8
0
10
-3.279004
20
2.318457
0
VERTEX
8
0
10
-3.270469
20
2.308594
0
VERTEX
8
0
10
-3.260762
20
2.302246
0
VERTEX
8
0
10
-3.250000
20
2.300000
0
SEQEND
8
0
0
POLYLINE
8
0
66
1
40
0.016000
41
0.016000
0
VERTEX
8
0
10
-3.300000
20
2.400000
0
VERTEX
8
0
10
-3.200000
20
2.400000
0
SEQEND
8
0
0
POLYLINE
8
0
66
1
40
0.016000
41
0.016000
0
VERTEX
8
0
10
-3.400000
20
2.400000
0
VERTEX
8
0
10
-3.350000
20
2.400000
0
SEQEND
8
0
0
POLYLINE
8
0
66
1
40
0.016000
41
0.016000
0
VERTEX
8
0
10
-3.500000
20
2.400000
0
VERTEX
8
0
10
-3.400000
20
2.400000
0
SEQEND
8
0
0
POLYLINE
8
0
66
1
40
0.016000
41
0.016000
0
VERTEX
8
0
10
-3.100000
20
2.400000
0
VERTEX
8
0
10
-3.200000
20
2.400000
0
SEQEND
8
0
0
TEXT
8
0
10
-3.408000
20
2.523000
40
0.120000
41
0.666667
1
C2
0
TEXT
8
0
10
-3.408000
20
2.202000
40
0.080000
41
1.000000
1
33pF
0
POLYLINE
8
0
66
1
40
0.016000
41
0.016000
0
VERTEX
8
0
10
-3.350000
20
3.300000
0
VERTEX
8
0
10
-3.350000
20
3.100000
0
SEQEND
8
0
0
POLYLINE
8
0
66
1
40
0.016000
41
0.016000
0
VERTEX
8
0
10
-3.300000
20
3.200000
0
VERTEX
8
0
10
-3.299082
20
3.218652
0
VERTEX
8
0
10
-3.296406
20
3.236719
0
VERTEX
8
0
10
-3.292090
20
3.253613
0
VERTEX
8
0
10
-3.286250
20
3.268750
0
VERTEX
8
0
10
-3.279004
20
3.281543
0
VERTEX
8
0
10
-3.270469
20
3.291406
0
VERTEX
8
0
10
-3.260762
20
3.297754
0
VERTEX
8
0
10
-3.250000
20
3.300000
0
SEQEND
8
0
0
POLYLINE
8
0
66
1
40
0.016000
41
0.016000
0
VERTEX
8
0
10
-3.300000
20
3.200000
0
VERTEX
8
0
10
-3.299082
20
3.181348
0
VERTEX
8
0
10
-3.296406
20
3.163281
0
VERTEX
8
0
10
-3.292090
20
3.146387
0
VERTEX
8
0
10
-3.286250
20
3.131250
0
VERTEX
8
0
10
-3.279004
20
3.118457
0
VERTEX
8
0
10
-3.270469
20
3.108594
0
VERTEX
8
0
10
-3.260762
20
3.102246
0
VERTEX
8
0
10
-3.250000
20
3.100000
0
SEQEND
8
0
0
POLYLINE
8
0
66
1
40
0.016000
41
0.016000
0
VERTEX
8
0
10
-3.300000
20
3.200000
0
VERTEX
8
0
10
-3.200000
20
3.200000
0
SEQEND
8
0
0
POLYLINE
8
0
66
1
40
0.016000
41
0.016000
0
VERTEX
8
0
10
-3.400000
20
3.200000
0
VERTEX
8
0
10
-3.350000
20
3.200000
0
SEQEND
8
0
0
POLYLINE
8
0
66
1
40
0.016000
41
0.016000
0
VERTEX
8
0
10
-3.500000
20
3.200000
0
VERTEX
8
0
10
-3.400000
20
3.200000
0
SEQEND
8
0
0
POLYLINE
8
0
66
1
40
0.016000
41
0.016000
0
VERTEX
8
0
10
-3.100000
20
3.200000
0
VERTEX
8
0
10
-3.200000
20
3.200000
0
SEQEND
8
0
0
TEXT
8
0
10
-3.408000
20
3.323000
40
0.120000
41
0.666667
1
C1
0
TEXT
8
0
10
-3.408000
20
3.002000
40
0.080000
41
1.000000
1
33pF
0
CIRCLE
8
0
10
-3.000000
20
3.200000
40
0.020000
0
POLYLINE
8
0
66
1
40
0.016000
41
0.016000
0
VERTEX
8
0
10
-3.100000
20
1.000000
0
VERTEX
8
0
10
-3.100000
20
1.200000
0
SEQEND
8
0
0
POLYLINE
8
0
66
1
40
0.016000
41
0.016000
0
VERTEX
8
0
10
-3.150000
20
1.100000
0
VERTEX
8
0
10
-3.150918
20
1.081348
0
VERTEX
8
0
10
-3.153594
20
1.063281
0
VERTEX
8
0
10
-3.157910
20
1.046387
0
VERTEX
8
0
10
-3.163750
20
1.031250
0
VERTEX
8
0
10
-3.170996
20
1.018457
0
VERTEX
8
0
10
-3.179531
20
1.008594
0
VERTEX
8
0
10
-3.189238
20
1.002246
0
VERTEX
8
0
10
-3.200000
20
1.000000
0
SEQEND
8
0
0
POLYLINE
8
0
66
1
40
0.016000
41
0.016000
0
VERTEX
8
0
10
-3.150000
20
1.100000
0
VERTEX
8
0
10
-3.150918
20
1.118652
0
VERTEX
8
0
10
-3.153594
20
1.136719
0
VERTEX
8
0
10
-3.157910
20
1.153613
0
VERTEX
8
0
10
-3.163750
20
1.168750
0
VERTEX
8
0
10
-3.170996
20
1.181543
0
VERTEX
8
0
10
-3.179531
20
1.191406
0
VERTEX
8
0
10
-3.189238
20
1.197754
0
VERTEX
8
0
10
-3.200000
20
1.200000
0
SEQEND
8
0
0
POLYLINE
8
0
66
1
40
0.016000
41
0.016000
0
VERTEX
8
0
10
-3.150000
20
1.100000
0
VERTEX
8
0
10
-3.250000
20
1.100000
0
SEQEND
8
0
0
POLYLINE
8
0
66
1
40
0.016000
41
0.016000
0
VERTEX
8
0
10
-3.050000
20
1.100000
0
VERTEX
8
0
10
-3.100000
20
1.100000
0
SEQEND
8
0
0
POLYLINE
8
0
66
1
40
0.016000
41
0.016000
0
VERTEX
8
0
10
-2.950000
20
1.100000
0
VERTEX
8
0
10
-3.050000
20
1.100000
0
SEQEND
8
0
0
POLYLINE
8
0
66
1
40
0.016000
41
0.016000
0
VERTEX
8
0
10
-3.350000
20
1.100000
0
VERTEX
8
0
10
-3.250000
20
1.100000
0
SEQEND
8
0
0
TEXT
8
0
10
-3.258000
20
0.902000
40
0.080000
41
1.000000
1
0.1uF
0
POLYLINE
8
0
66
1
40
0.016000
41
0.016000
0
VERTEX
8
0
10
-3.550000
20
1.000000
0
VERTEX
8
0
10
-3.550000
20
0.900000
0
SEQEND
8
0
0
POLYLINE
8
0
66
1
40
0.016000
41
0.016000
0
VERTEX
8
0
10
-3.650000
20
0.900000
0
VERTEX
8
0
10
-3.450000
20
0.900000
0
SEQEND
8
0
0
POLYLINE
8
0
66
1
40
0.016000
41
0.016000
0
VERTEX
8
0
10
-3.600000
20
0.850000
0
VERTEX
8
0
10
-3.500000
20
0.850000
0
SEQEND
8
0
0
POLYLINE
8
0
66
1
40
0.016000
41
0.016000
0
VERTEX
8
0
10
-3.560000
20
0.800000
0
VERTEX
8
0
10
-3.540000
20
0.800000
0
SEQEND
8
0
0
TEXT
8
0
10
-3.650000
20
0.660000
40
0.080000
41
1.000000
1
GND
0
POLYLINE
8
0
66
1
40
0.016000
41
0.016000
0
VERTEX
8
0
10
-2.800000
20
1.950000
0
VERTEX
8
0
10
-2.750000
20
2.050000
0
VERTEX
8
0
10
-2.700000
20
1.950000
0
VERTEX
8
0
10
-2.800000
20
1.950000
0
SEQEND
8
0
0
POLYLINE
8
0
66
1
40
0.016000
41
0.016000
0
VERTEX
8
0
10
-2.750000
20
1.850000
0
VERTEX
8
0
10
-2.750000
20
2.050000
0
SEQEND
8
0
0
POLYLINE
8
0
66
1
40
0.016000
41
0.016000
0
VERTEX
8
0
10
-2.790000
20
1.500000
0
VERTEX
8
0
10
-2.710000
20
1.500000
0
VERTEX
8
0
10
-2.710000
20
1.800000
0
VERTEX
8
0
10
-2.790000
20
1.800000
0
VERTEX
8
0
10
-2.790000
20
1.500000
0
SEQEND
8
0
0
POLYLINE
8
0
66
1
40
0.016000
41
0.016000
0
VERTEX
8
0
10
-2.750000
20
1.900000
0
VERTEX
8
0
10
-2.750000
20
1.800000
0
SEQEND
8
0
0
POLYLINE
8
0
66
1
40
0.016000
41
0.016000
0
VERTEX
8
0
10
-2.750000
20
1.400000
0
VERTEX
8
0
10
-2.750000
20
1.500000
0
SEQEND
8
0
0
TEXT
8
0
10
-2.652000
20
1.568000
40
0.080000
41
1.000000
1
10k
0
CIRCLE
8
0
10
-2.750000
20
1.400000
40
0.020000
0
CIRCLE
8
0
10
-3.550000
20
1.100000
40
0.020000
0
CIRCLE
8
0
10
-3.000000
20
2.400000
40
0.020000
0
CIRCLE
8
0
10
-3.900000
20
2.400000
40
0.020000
0
POLYLINE
8
0
66
1
40
0.016000
41
0.016000
0
VERTEX
8
0
10
-0.150000
20
2.250000
0
VERTEX
8
0
10
1.250000
20
2.250000
0
VERTEX
8
0
10
1.250000
20
2.950000
0
VERTEX
8
0
10
-0.150000
20
2.950000
0
VERTEX
8
0
10
-0.150000
20
2.250000
0
SEQEND
8
0
0
CIRCLE
8
0
10
0.150000
20
2.650000
40
0.200000
0
CIRCLE
8
0
10
0.950000
20
2.650000
40
0.200000
0
CIRCLE
8
0
10
0.150000
20
2.650000
40
0.171172
0
CIRCLE
8
0
10
0.950000
20
2.650000
40
0.171172
0
POLYLINE
8
0
66
1
40
0.008000
41
0.008000
0
VERTEX
8
0
10
0.400000
20
2.700000
0
VERTEX
8
0
10
0.700000
20
2.700000
0
VERTEX
8
0
10
0.700000
20
2.800000
0
VERTEX
8
0
10
0.400000
20
2.800000
0
VERTEX
8
0
10
0.400000
20
2.700000
0
SEQEND
8
0
0
TEXT
8
1
10
0.475000
20
2.710000
40
0.080000
41
0.625000
1
171
0
POLYLINE
8
0
66
1
40
0.016000
41
0.016000
0
VERTEX
8
0
10
0.550000
20
2.050000
0
VERTEX
8
0
10
0.550000
20
2.250000
0
SEQEND
8
0
0
TEXT
8
0
10
0.590000
20
2.300000
40
0.080000
41
1.000000
50
90.000000
1
TR
0
TEXT
8
0
10
0.640000
20
2.070000
40
0.080000
41
1.000000
50
90.000000
1
3
0
POLYLINE
8
0
66
1
40
0.016000
41
0.016000
0
VERTEX
8
0
10
0.450000
20
2.050000
0
VERTEX
8
0
10
0.450000
20
2.250000
0
SEQEND
8
0
0
TEXT
8
0
10
0.490000
20
2.300000
40
0.080000
41
1.000000
50
90.000000
1
NC
0
TEXT
8
0
10
0.540000
20
2.070000
40
0.080000
41
1.000000
50
90.000000
1
4
0
POLYLINE
8
0
66
1
40
0.016000
41
0.016000
0
VERTEX
8
0
10
0.650000
20
2.050000
0
VERTEX
8
0
10
0.650000
20
2.250000
0
SEQEND
8
0
0
TEXT
8
0
10
0.690000
20
2.300000
40
0.080000
41
1.000000
50
90.000000
1
ECHO
0
TEXT
8
0
10
0.740000
20
2.070000
40
0.080000
41
1.000000
50
90.000000
1
2
0
POLYLINE
8
0
66
1
40
0.016000
41
0.016000
0
VERTEX
8
0
10
0.750000
20
2.050000
0
VERTEX
8
0
10
0.750000
20
2.250000
0
SEQEND
8
0
0
TEXT
8
0
10
0.790000
20
2.300000
40
0.080000
41
1.000000
50
90.000000
1
VCC
0
TEXT
8
0
10
0.840000
20
2.070000
40
0.080000
41
1.000000
50
90.000000
1
1
0
POLYLINE
8
0
66
1
40
0.016000
41
0.016000
0
VERTEX
8
0
10
0.350000
20
2.050000
0
VERTEX
8
0
10
0.350000
20
2.250000
0
SEQEND
8
0
0
TEXT
8
0
10
0.390000
20
2.300000
40
0.080000
41
1.000000
50
90.000000
1
GND
0
TEXT
8
0
10
0.440000
20
2.070000
40
0.080000
41
1.000000
50
90.000000
1
5
0
CIRCLE
8
0
10
0.650000
20
2.600000
40
0.040000
0
POLYLINE
8
0
66
1
40
0.008000
41
0.008000
0
VERTEX
8
0
10
0.650000
20
2.620000
0
VERTEX
8
0
10
0.640000
20
2.610000
0
SEQEND
8
0
0
POLYLINE
8
0
66
1
40
0.008000
41
0.008000
0
VERTEX
8
0
10
0.650000
20
2.620000
0
VERTEX
8
0
10
0.660000
20
2.610000
0
SEQEND
8
0
0
POLYLINE
8
0
66
1
40
0.008000
41
0.008000
0
VERTEX
8
0
10
0.650000
20
2.620000
0
VERTEX
8
0
10
0.650000
20
2.580000
0
SEQEND
8
0
0
CIRCLE
8
0
10
0.450000
20
2.600000
40
0.040000
0
POLYLINE
8
0
66
1
40
0.008000
41
0.008000
0
VERTEX
8
0
10
0.450000
20
2.580000
0
VERTEX
8
0
10
0.440000
20
2.590000
0
SEQEND
8
0
0
POLYLINE
8
0
66
1
40
0.008000
41
0.008000
0
VERTEX
8
0
10
0.450000
20
2.580000
0
VERTEX
8
0
10
0.460000
20
2.590000
0
SEQEND
8
0
0
POLYLINE
8
0
66
1
40
0.008000
41
0.008000
0
VERTEX
8
0
10
0.450000
20
2.580000
0
VERTEX
8
0
10
0.450000
20
2.620000
0
SEQEND
8
0
0
TEXT
8
0
10
-0.158000
20
3.068000
40
0.080000
41
1.000000
1
SR04
0
CIRCLE
8
0
10
-0.400000
20
0.400000
40
0.020000
0
CIRCLE
8
0
10
-0.400000
20
0.500000
40
0.020000
0
CIRCLE
8
0
10
-0.400000
20
0.600000
40
0.020000
0
POLYLINE
8
0
66
1
40
0.016000
41
0.016000
0
VERTEX
8
0
10
4.300000
20
3.300000
0
VERTEX
8
0
10
4.350000
20
3.400000
0
VERTEX
8
0
10
4.400000
20
3.300000
0
VERTEX
8
0
10
4.300000
20
3.300000
0
SEQEND
8
0
0
POLYLINE
8
0
66
1
40
0.016000
41
0.016000
0
VERTEX
8
0
10
4.350000
20
3.200000
0
VERTEX
8
0
10
4.350000
20
3.400000
0
SEQEND
8
0
0
POLYLINE
8
0
66
1
40
0.016000
41
0.016000
0
VERTEX
8
0
10
4.600000
20
3.200000
0
VERTEX
8
0
10
4.600000
20
3.300000
0
SEQEND
8
0
0
POLYLINE
8
0
66
1
40
0.016000
41
0.016000
0
VERTEX
8
0
10
4.700000
20
3.300000
0
VERTEX
8
0
10
4.500000
20
3.300000
0
SEQEND
8
0
0
POLYLINE
8
0
66
1
40
0.016000
41
0.016000
0
VERTEX
8
0
10
4.650000
20
3.350000
0
VERTEX
8
0
10
4.550000
20
3.350000
0
SEQEND
8
0
0
POLYLINE
8
0
66
1
40
0.016000
41
0.016000
0
VERTEX
8
0
10
4.610000
20
3.400000
0
VERTEX
8
0
10
4.590000
20
3.400000
0
SEQEND
8
0
0
CIRCLE
8
0
10
4.350000
20
3.000000
40
0.020000
0
CIRCLE
8
0
10
4.600000
20
3.000000
40
0.020000
0
CIRCLE
8
0
10
0.750000
20
1.800000
40
0.020000
0
CIRCLE
8
0
10
0.350000
20
1.800000
40
0.020000
0
CIRCLE
8
0
10
0.550000
20
1.800000
40
0.020000
0
CIRCLE
8
0
10
0.650000
20
1.800000
40
0.020000
0
POLYLINE
8
0
66
1
40
0.016000
41
0.016000
0
VERTEX
8
0
10
1.500000
20
1.500000
0
VERTEX
8
0
10
1.400000
20
1.550000
0
VERTEX
8
0
10
1.500000
20
1.600000
0
VERTEX
8
0
10
1.500000
20
1.500000
0
SEQEND
8
0
0
POLYLINE
8
0
66
1
40
0.016000
41
0.016000
0
VERTEX
8
0
10
1.600000
20
1.550000
0
VERTEX
8
0
10
1.400000
20
1.550000
0
SEQEND
8
0
0
POLYLINE
8
0
66
1
40
0.016000
41
0.016000
0
VERTEX
8
0
10
2.300000
20
1.550000
0
VERTEX
8
0
10
2.400000
20
1.550000
0
SEQEND
8
0
0
POLYLINE
8
0
66
1
40
0.016000
41
0.016000
0
VERTEX
8
0
10
2.400000
20
1.450000
0
VERTEX
8
0
10
2.400000
20
1.650000
0
SEQEND
8
0
0
POLYLINE
8
0
66
1
40
0.016000
41
0.016000
0
VERTEX
8
0
10
2.450000
20
1.500000
0
VERTEX
8
0
10
2.450000
20
1.600000
0
SEQEND
8
0
0
POLYLINE
8
0
66
1
40
0.016000
41
0.016000
0
VERTEX
8
0
10
2.500000
20
1.540000
0
VERTEX
8
0
10
2.500000
20
1.560000
0
SEQEND
8
0
0
POLYLINE
8
0
66
1
40
0.016000
41
0.016000
0
VERTEX
8
0
10
1.800000
20
1.510000
0
VERTEX
8
0
10
2.100000
20
1.510000
0
VERTEX
8
0
10
2.100000
20
1.590000
0
VERTEX
8
0
10
1.800000
20
1.590000
0
VERTEX
8
0
10
1.800000
20
1.510000
0
SEQEND
8
0
0
POLYLINE
8
0
66
1
40
0.016000
41
0.016000
0
VERTEX
8
0
10
2.150000
20
1.550000
0
VERTEX
8
0
10
2.100000
20
1.550000
0
SEQEND
8
0
0
POLYLINE
8
0
66
1
40
0.016000
41
0.016000
0
VERTEX
8
0
10
1.800000
20
1.550000
0
VERTEX
8
0
10
1.750000
20
1.550000
0
SEQEND
8
0
0
POLYLINE
8
0
66
1
40
0.016000
41
0.016000
0
VERTEX
8
0
10
1.950000
20
1.600000
0
VERTEX
8
0
10
1.970000
20
1.630000
0
SEQEND
8
0
0
POLYLINE
8
0
66
1
40
0.016000
41
0.016000
0
VERTEX
8
0
10
1.950000
20
1.600000
0
VERTEX
8
0
10
1.930000
20
1.630000
0
SEQEND
8
0
0
POLYLINE
8
0
66
1
40
0.016000
41
0.016000
0
VERTEX
8
0
10
1.950000
20
1.600000
0
VERTEX
8
0
10
1.950000
20
1.650000
0
SEQEND
8
0
0
POLYLINE
8
0
66
1
40
0.016000
41
0.016000
0
VERTEX
8
0
10
2.250000
20
1.550000
0
VERTEX
8
0
10
2.150000
20
1.550000
0
SEQEND
8
0
0
POLYLINE
8
0
66
1
40
0.016000
41
0.016000
0
VERTEX
8
0
10
1.650000
20
1.550000
0
VERTEX
8
0
10
1.750000
20
1.550000
0
SEQEND
8
0
0
POLYLINE
8
0
66
1
40
0.016000
41
0.016000
0
VERTEX
8
0
10
1.950000
20
1.750000
0
VERTEX
8
0
10
1.950000
20
1.650000
0
SEQEND
8
0
0
TEXT
8
0
10
1.742000
20
1.362000
40
0.080000
41
1.000000
1
10K
0
CIRCLE
8
0
10
-0.830000
20
-0.650000
40
0.020000
0
CIRCLE
8
0
10
-1.070000
20
-0.650000
40
0.020000
0
POLYLINE
8
0
66
1
40
0.016000
41
0.016000
0
VERTEX
8
0
10
-1.100000
20
-0.650000
0
VERTEX
8
0
10
-1.090000
20
-0.650000
0
SEQEND
8
0
0
POLYLINE
8
0
66
1
40
0.016000
41
0.016000
0
VERTEX
8
0
10
-0.810000
20
-0.650000
0
VERTEX
8
0
10
-0.800000
20
-0.650000
0
SEQEND
8
0
0
POLYLINE
8
0
66
1
40
0.016000
41
0.016000
0
VERTEX
8
0
10
-1.050000
20
-0.640000
0
VERTEX
8
0
10
-0.860000
20
-0.520000
0
SEQEND
8
0
0
POLYLINE
8
0
66
1
40
0.016000
41
0.016000
0
VERTEX
8
0
10
-1.200000
20
-0.650000
0
VERTEX
8
0
10
-1.100000
20
-0.650000
0
SEQEND
8
0
0
POLYLINE
8
0
66
1
40
0.016000
41
0.016000
0
VERTEX
8
0
10
-0.700000
20
-0.650000
0
VERTEX
8
0
10
-0.800000
20
-0.650000
0
SEQEND
8
0
0
CIRCLE
8
0
10
-0.800000
20
-0.550000
40
0.040000
0
POLYLINE
8
0
66
1
40
0.008000
41
0.008000
0
VERTEX
8
0
10
-0.800000
20
-0.570000
0
VERTEX
8
0
10
-0.810000
20
-0.560000
0
SEQEND
8
0
0
POLYLINE
8
0
66
1
40
0.008000
41
0.008000
0
VERTEX
8
0
10
-0.800000
20
-0.570000
0
VERTEX
8
0
10
-0.790000
20
-0.560000
0
SEQEND
8
0
0
POLYLINE
8
0
66
1
40
0.008000
41
0.008000
0
VERTEX
8
0
10
-0.800000
20
-0.570000
0
VERTEX
8
0
10
-0.800000
20
-0.530000
0
SEQEND
8
0
0
CIRCLE
8
0
10
-0.700000
20
-0.550000
40
0.040000
0
POLYLINE
8
0
66
1
40
0.008000
41
0.008000
0
VERTEX
8
0
10
-0.700000
20
-0.530000
0
VERTEX
8
0
10
-0.710000
20
-0.540000
0
SEQEND
8
0
0
POLYLINE
8
0
66
1
40
0.008000
41
0.008000
0
VERTEX
8
0
10
-0.700000
20
-0.530000
0
VERTEX
8
0
10
-0.690000
20
-0.540000
0
SEQEND
8
0
0
POLYLINE
8
0
66
1
40
0.008000
41
0.008000
0
VERTEX
8
0
10
-0.700000
20
-0.530000
0
VERTEX
8
0
10
-0.700000
20
-0.570000
0
SEQEND
8
0
0
CIRCLE
8
0
10
-0.450000
20
2.800000
40
0.020000
0
CIRCLE
8
0
10
-0.450000
20
2.700000
40
0.020000
0
CIRCLE
8
0
10
-0.400000
20
1.500000
40
0.020000
0
CIRCLE
8
0
10
-0.400000
20
1.400000
40
0.020000
0
CIRCLE
8
0
10
-0.400000
20
1.300000
40
0.020000
0
CIRCLE
8
0
10
-0.400000
20
1.200000
40
0.020000
0
CIRCLE
8
0
10
-3.030000
20
1.400000
40
0.030000
0
CIRCLE
8
0
10
-3.270000
20
1.400000
40
0.030000
0
POLYLINE
8
0
66
1
40
0.016000
41
0.016000
0
VERTEX
8
0
10
-3.290000
20
1.480000
0
VERTEX
8
0
10
-3.010000
20
1.480000
0
SEQEND
8
0
0
POLYLINE
8
0
66
1
40
0.016000
41
0.016000
0
VERTEX
8
0
10
-3.230000
20
1.480000
0
VERTEX
8
0
10
-3.070000
20
1.480000
0
VERTEX
8
0
10
-3.070000
20
1.530000
0
VERTEX
8
0
10
-3.230000
20
1.530000
0
VERTEX
8
0
10
-3.230000
20
1.480000
0
SEQEND
8
0
0
POLYLINE
8
0
66
1
40
0.016000
41
0.016000
0
VERTEX
8
0
10
-3.400000
20
1.400000
0
VERTEX
8
0
10
-3.300000
20
1.400000
0
SEQEND
8
0
0
POLYLINE
8
0
66
1
40
0.016000
41
0.016000
0
VERTEX
8
0
10
-2.900000
20
1.400000
0
VERTEX
8
0
10
-3.000000
20
1.400000
0
SEQEND
8
0
0
CIRCLE
8
0
10
-2.950000
20
1.500000
40
0.040000
0
POLYLINE
8
0
66
1
40
0.008000
41
0.008000
0
VERTEX
8
0
10
-2.950000
20
1.480000
0
VERTEX
8
0
10
-2.950000
20
1.520000
0
SEQEND
8
0
0
POLYLINE
8
0
66
1
40
0.008000
41
0.008000
0
VERTEX
8
0
10
-2.950000
20
1.480000
0
VERTEX
8
0
10
-2.960000
20
1.490000
0
SEQEND
8
0
0
POLYLINE
8
0
66
1
40
0.008000
41
0.008000
0
VERTEX
8
0
10
-2.950000
20
1.480000
0
VERTEX
8
0
10
-2.940000
20
1.490000
0
SEQEND
8
0
0
POLYLINE
8
0
66
1
40
0.008000
41
0.008000
0
VERTEX
8
0
10
-2.960000
20
1.510000
0
VERTEX
8
0
10
-2.950000
20
1.520000
0
VERTEX
8
0
10
-2.940000
20
1.510000
0
SEQEND
8
0
0
TEXT
8
0
10
-3.308000
20
1.553000
40
0.120000
41
0.666667
1
RESET
0
TEXT
8
0
10
-3.308000
20
1.272000
40
0.080000
41
1.000000
1
BUTTON
0
POLYLINE
8
0
66
1
40
0.016000
41
0.016000
0
VERTEX
8
0
10
-3.900000
20
2.300000
0
VERTEX
8
0
10
-3.900000
20
2.200000
0
SEQEND
8
0
0
POLYLINE
8
0
66
1
40
0.016000
41
0.016000
0
VERTEX
8
0
10
-4.000000
20
2.200000
0
VERTEX
8
0
10
-3.800000
20
2.200000
0
SEQEND
8
0
0
POLYLINE
8
0
66
1
40
0.016000
41
0.016000
0
VERTEX
8
0
10
-3.950000
20
2.150000
0
VERTEX
8
0
10
-3.850000
20
2.150000
0
SEQEND
8
0
0
POLYLINE
8
0
66
1
40
0.016000
41
0.016000
0
VERTEX
8
0
10
-3.910000
20
2.100000
0
VERTEX
8
0
10
-3.890000
20
2.100000
0
SEQEND
8
0
0
CIRCLE
8
0
10
-3.900000
20
2.200000
40
0.020000
0
POLYLINE
8
0
66
1
40
0.016000
41
0.016000
0
VERTEX
8
0
10
1.550000
20
2.200000
0
VERTEX
8
0
10
3.550000
20
2.200000
0
VERTEX
8
0
10
3.550000
20
3.000000
0
VERTEX
8
0
10
1.550000
20
3.000000
0
VERTEX
8
0
10
1.550000
20
2.200000
0
SEQEND
8
0
0
POLYLINE
8
0
66
1
40
0.010000
41
0.010000
0
VERTEX
8
0
10
1.650000
20
2.480000
0
VERTEX
8
0
10
3.450000
20
2.480000
0
VERTEX
8
0
10
3.450000
20
2.920000
0
VERTEX
8
0
10
1.650000
20
2.920000
0
VERTEX
8
0
10
1.650000
20
2.480000
0
SEQEND
8
0
0
POLYLINE
8
0
66
1
40
0.016000
41
0.016000
0
VERTEX
8
0
10
3.250000
20
2.000000
0
VERTEX
8
0
10
3.250000
20
2.200000
0
SEQEND
8
0
0
TEXT
8
0
10
3.290000
20
2.250000
40
0.080000
41
1.000000
50
90.000000
1
D7
0
TEXT
8
0
10
3.240000
20
1.940000
40
0.080000
41
1.000000
50
90.000000
1
14
0
POLYLINE
8
0
66
1
40
0.016000
41
0.016000
0
VERTEX
8
0
10
3.150000
20
2.000000
0
VERTEX
8
0
10
3.150000
20
2.200000
0
SEQEND
8
0
0
TEXT
8
0
10
3.190000
20
2.250000
40
0.080000
41
1.000000
50
90.000000
1
D6
0
TEXT
8
0
10
3.140000
20
1.940000
40
0.080000
41
1.000000
50
90.000000
1
13
0
POLYLINE
8
0
66
1
40
0.016000
41
0.016000
0
VERTEX
8
0
10
3.050000
20
2.000000
0
VERTEX
8
0
10
3.050000
20
2.200000
0
SEQEND
8
0
0
TEXT
8
0
10
3.090000
20
2.250000
40
0.080000
41
1.000000
50
90.000000
1
D5
0
TEXT
8
0
10
3.040000
20
1.940000
40
0.080000
41
1.000000
50
90.000000
1
12
0
POLYLINE
8
0
66
1
40
0.016000
41
0.016000
0
VERTEX
8
0
10
2.950000
20
2.000000
0
VERTEX
8
0
10
2.950000
20
2.200000
0
SEQEND
8
0
0
TEXT
8
0
10
2.990000
20
2.250000
40
0.080000
41
1.000000
50
90.000000
1
D4
0
TEXT
8
0
10
2.940000
20
1.940000
40
0.080000
41
1.000000
50
90.000000
1
11
0
POLYLINE
8
0
66
1
40
0.016000
41
0.016000
0
VERTEX
8
0
10
2.850000
20
2.000000
0
VERTEX
8
0
10
2.850000
20
2.200000
0
SEQEND
8
0
0
TEXT
8
0
10
2.890000
20
2.250000
40
0.080000
41
1.000000
50
90.000000
1
D3
0
TEXT
8
0
10
2.840000
20
1.940000
40
0.080000
41
1.000000
50
90.000000
1
10
0
POLYLINE
8
0
66
1
40
0.016000
41
0.016000
0
VERTEX
8
0
10
2.750000
20
2.000000
0
VERTEX
8
0
10
2.750000
20
2.200000
0
SEQEND
8
0
0
TEXT
8
0
10
2.790000
20
2.250000
40
0.080000
41
1.000000
50
90.000000
1
D2
0
TEXT
8
0
10
2.740000
20
2.020000
40
0.080000
41
1.000000
50
90.000000
1
9
0
POLYLINE
8
0
66
1
40
0.016000
41
0.016000
0
VERTEX
8
0
10
2.650000
20
2.000000
0
VERTEX
8
0
10
2.650000
20
2.200000
0
SEQEND
8
0
0
TEXT
8
0
10
2.690000
20
2.250000
40
0.080000
41
1.000000
50
90.000000
1
D1
0
TEXT
8
0
10
2.640000
20
2.020000
40
0.080000
41
1.000000
50
90.000000
1
8
0
POLYLINE
8
0
66
1
40
0.016000
41
0.016000
0
VERTEX
8
0
10
2.550000
20
2.000000
0
VERTEX
8
0
10
2.550000
20
2.200000
0
SEQEND
8
0
0
TEXT
8
0
10
2.590000
20
2.250000
40
0.080000
41
1.000000
50
90.000000
1
D0
0
TEXT
8
0
10
2.540000
20
2.020000
40
0.080000
41
1.000000
50
90.000000
1
7
0
POLYLINE
8
0
66
1
40
0.016000
41
0.016000
0
VERTEX
8
0
10
2.350000
20
2.000000
0
VERTEX
8
0
10
2.350000
20
2.200000
0
SEQEND
8
0
0
TEXT
8
0
10
2.390000
20
2.250000
40
0.080000
41
1.000000
50
90.000000
1
E
0
TEXT
8
0
10
2.340000
20
2.020000
40
0.080000
41
1.000000
50
90.000000
1
6
0
POLYLINE
8
0
66
1
40
0.016000
41
0.016000
0
VERTEX
8
0
10
2.250000
20
2.000000
0
VERTEX
8
0
10
2.250000
20
2.200000
0
SEQEND
8
0
0
TEXT
8
0
10
2.290000
20
2.250000
40
0.080000
41
1.000000
50
90.000000
1
RW
0
TEXT
8
0
10
2.240000
20
2.020000
40
0.080000
41
1.000000
50
90.000000
1
5
0
POLYLINE
8
0
66
1
40
0.016000
41
0.016000
0
VERTEX
8
0
10
2.150000
20
2.000000
0
VERTEX
8
0
10
2.150000
20
2.200000
0
SEQEND
8
0
0
TEXT
8
0
10
2.190000
20
2.250000
40
0.080000
41
1.000000
50
90.000000
1
RS
0
TEXT
8
0
10
2.140000
20
2.020000
40
0.080000
41
1.000000
50
90.000000
1
4
0
POLYLINE
8
0
66
1
40
0.016000
41
0.016000
0
VERTEX
8
0
10
1.750000
20
2.000000
0
VERTEX
8
0
10
1.750000
20
2.200000
0
SEQEND
8
0
0
TEXT
8
0
10
1.790000
20
2.250000
40
0.080000
41
1.000000
50
90.000000
1
VSS
0
TEXT
8
0
10
1.740000
20
2.020000
40
0.080000
41
1.000000
50
90.000000
1
1
0
POLYLINE
8
0
66
1
40
0.016000
41
0.016000
0
VERTEX
8
0
10
1.850000
20
2.000000
0
VERTEX
8
0
10
1.850000
20
2.200000
0
SEQEND
8
0
0
TEXT
8
0
10
1.890000
20
2.250000
40
0.080000
41
1.000000
50
90.000000
1
VDD
0
TEXT
8
0
10
1.840000
20
2.020000
40
0.080000
41
1.000000
50
90.000000
1
2
0
POLYLINE
8
0
66
1
40
0.016000
41
0.016000
0
VERTEX
8
0
10
1.950000
20
2.000000
0
VERTEX
8
0
10
1.950000
20
2.200000
0
SEQEND
8
0
0
TEXT
8
0
10
1.990000
20
2.250000
40
0.080000
41
1.000000
50
90.000000
1
VEE
0
TEXT
8
0
10
1.940000
20
2.020000
40
0.080000
41
1.000000
50
90.000000
1
3
0
CIRCLE
8
0
10
1.750000
20
1.850000
40
0.020000
0
CIRCLE
8
0
10
1.850000
20
1.850000
40
0.020000
0
CIRCLE
8
0
10
2.150000
20
1.850000
40
0.020000
0
CIRCLE
8
0
10
2.250000
20
1.850000
40
0.020000
0
CIRCLE
8
0
10
2.350000
20
1.850000
40
0.020000
0
CIRCLE
8
0
10
2.950000
20
1.850000
40
0.020000
0
CIRCLE
8
0
10
3.050000
20
1.850000
40
0.020000
0
CIRCLE
8
0
10
3.150000
20
1.850000
40
0.020000
0
CIRCLE
8
0
10
3.250000
20
1.850000
40
0.020000
0
POLYLINE
8
0
66
1
40
0.016000
41
0.016000
0
VERTEX
8
0
10
2.300000
20
-0.950000
0
VERTEX
8
0
10
3.100000
20
-0.950000
0
VERTEX
8
0
10
3.100000
20
-0.550000
0
VERTEX
8
0
10
2.300000
20
-0.550000
0
VERTEX
8
0
10
2.300000
20
-0.950000
0
SEQEND
8
0
0
POLYLINE
8
0
66
1
40
0.016000
41
0.016000
0
VERTEX
8
0
10
2.100000
20
-0.650000
0
VERTEX
8
0
10
2.300000
20
-0.650000
0
SEQEND
8
0
0
TEXT
8
0
10
2.350000
20
-0.690000
40
0.080000
41
1.000000
1
VI
0
TEXT
8
0
10
2.120000
20
-0.640000
40
0.080000
41
1.000000
1
1
0
POLYLINE
8
0
66
1
40
0.016000
41
0.016000
0
VERTEX
8
0
10
3.300000
20
-0.650000
0
VERTEX
8
0
10
3.100000
20
-0.650000
0
SEQEND
8
0
0
TEXT
8
0
10
2.890000
20
-0.690000
40
0.080000
41
1.000000
1
VO
0
TEXT
8
0
10
3.200000
20
-0.640000
40
0.080000
41
1.000000
1
3
0
POLYLINE
8
0
66
1
40
0.016000
41
0.016000
0
VERTEX
8
0
10
2.700000
20
-1.150000
0
VERTEX
8
0
10
2.700000
20
-0.950000
0
SEQEND
8
0
0
TEXT
8
0
10
2.740000
20
-0.900000
40
0.080000
41
1.000000
50
90.000000
1
GND
0
TEXT
8
0
10
2.690000
20
-1.130000
40
0.080000
41
1.000000
50
90.000000
1
2
0
TEXT
8
0
10
2.292000
20
-0.432000
40
0.080000
41
1.000000
1
7805
0
POLYLINE
8
0
66
1
40
0.016000
41
0.016000
0
VERTEX
8
0
10
2.050000
20
-0.950000
0
VERTEX
8
0
10
1.850000
20
-0.950000
0
SEQEND
8
0
0
POLYLINE
8
0
66
1
40
0.016000
41
0.016000
0
VERTEX
8
0
10
1.950000
20
-1.000000
0
VERTEX
8
0
10
1.968652
20
-1.000918
0
VERTEX
8
0
10
1.986719
20
-1.003594
0
VERTEX
8
0
10
2.003613
20
-1.007910
0
VERTEX
8
0
10
2.018750
20
-1.013750
0
VERTEX
8
0
10
2.031543
20
-1.020996
0
VERTEX
8
0
10
2.041406
20
-1.029531
0
VERTEX
8
0
10
2.047754
20
-1.039238
0
VERTEX
8
0
10
2.050000
20
-1.050000
0
SEQEND
8
0
0
POLYLINE
8
0
66
1
40
0.016000
41
0.016000
0
VERTEX
8
0
10
1.950000
20
-1.000000
0
VERTEX
8
0
10
1.931348
20
-1.000918
0
VERTEX
8
0
10
1.913281
20
-1.003594
0
VERTEX
8
0
10
1.896387
20
-1.007910
0
VERTEX
8
0
10
1.881250
20
-1.013750
0
VERTEX
8
0
10
1.868457
20
-1.020996
0
VERTEX
8
0
10
1.858594
20
-1.029531
0
VERTEX
8
0
10
1.852246
20
-1.039238
0
VERTEX
8
0
10
1.850000
20
-1.050000
0
SEQEND
8
0
0
POLYLINE
8
0
66
1
40
0.016000
41
0.016000
0
VERTEX
8
0
10
1.950000
20
-1.000000
0
VERTEX
8
0
10
1.950000
20
-1.100000
0
SEQEND
8
0
0
POLYLINE
8
0
66
1
40
0.016000
41
0.016000
0
VERTEX
8
0
10
1.950000
20
-0.900000
0
VERTEX
8
0
10
1.950000
20
-0.950000
0
SEQEND
8
0
0
POLYLINE
8
0
66
1
40
0.016000
41
0.016000
0
VERTEX
8
0
10
1.950000
20
-0.800000
0
VERTEX
8
0
10
1.950000
20
-0.900000
0
SEQEND
8
0
0
POLYLINE
8
0
66
1
40
0.016000
41
0.016000
0
VERTEX
8
0
10
1.950000
20
-1.200000
0
VERTEX
8
0
10
1.950000
20
-1.100000
0
SEQEND
8
0
0
TEXT
8
0
10
2.108000
20
-1.027000
40
0.120000
41
0.666667
1
C4
0
TEXT
8
0
10
2.108000
20
-1.132000
40
0.080000
41
1.000000
1
1uF
0
POLYLINE
8
0
66
1
40
0.016000
41
0.016000
0
VERTEX
8
0
10
3.500000
20
-0.950000
0
VERTEX
8
0
10
3.300000
20
-0.950000
0
SEQEND
8
0
0
POLYLINE
8
0
66
1
40
0.016000
41
0.016000
0
VERTEX
8
0
10
3.400000
20
-1.000000
0
VERTEX
8
0
10
3.418652
20
-1.000918
0
VERTEX
8
0
10
3.436719
20
-1.003594
0
VERTEX
8
0
10
3.453613
20
-1.007910
0
VERTEX
8
0
10
3.468750
20
-1.013750
0
VERTEX
8
0
10
3.481543
20
-1.020996
0
VERTEX
8
0
10
3.491406
20
-1.029531
0
VERTEX
8
0
10
3.497754
20
-1.039238
0
VERTEX
8
0
10
3.500000
20
-1.050000
0
SEQEND
8
0
0
POLYLINE
8
0
66
1
40
0.016000
41
0.016000
0
VERTEX
8
0
10
3.400000
20
-1.000000
0
VERTEX
8
0
10
3.381348
20
-1.000918
0
VERTEX
8
0
10
3.363281
20
-1.003594
0
VERTEX
8
0
10
3.346387
20
-1.007910
0
VERTEX
8
0
10
3.331250
20
-1.013750
0
VERTEX
8
0
10
3.318457
20
-1.020996
0
VERTEX
8
0
10
3.308594
20
-1.029531
0
VERTEX
8
0
10
3.302246
20
-1.039238
0
VERTEX
8
0
10
3.300000
20
-1.050000
0
SEQEND
8
0
0
POLYLINE
8
0
66
1
40
0.016000
41
0.016000
0
VERTEX
8
0
10
3.400000
20
-1.000000
0
VERTEX
8
0
10
3.400000
20
-1.100000
0
SEQEND
8
0
0
POLYLINE
8
0
66
1
40
0.016000
41
0.016000
0
VERTEX
8
0
10
3.400000
20
-0.900000
0
VERTEX
8
0
10
3.400000
20
-0.950000
0
SEQEND
8
0
0
POLYLINE
8
0
66
1
40
0.016000
41
0.016000
0
VERTEX
8
0
10
3.400000
20
-0.800000
0
VERTEX
8
0
10
3.400000
20
-0.900000
0
SEQEND
8
0
0
POLYLINE
8
0
66
1
40
0.016000
41
0.016000
0
VERTEX
8
0
10
3.400000
20
-1.200000
0
VERTEX
8
0
10
3.400000
20
-1.100000
0
SEQEND
8
0
0
TEXT
8
0
10
3.558000
20
-1.027000
40
0.120000
41
0.666667
1
C5
0
TEXT
8
0
10
3.558000
20
-1.132000
40
0.080000
41
1.000000
1
1uF
0
POLYLINE
8
0
66
1
40
0.016000
41
0.016000
0
VERTEX
8
0
10
1.510000
20
-1.150000
0
VERTEX
8
0
10
1.590000
20
-1.150000
0
VERTEX
8
0
10
1.590000
20
-0.850000
0
VERTEX
8
0
10
1.510000
20
-0.850000
0
VERTEX
8
0
10
1.510000
20
-1.150000
0
SEQEND
8
0
0
POLYLINE
8
0
66
1
40
0.016000
41
0.016000
0
VERTEX
8
0
10
1.550000
20
-0.750000
0
VERTEX
8
0
10
1.550000
20
-0.850000
0
SEQEND
8
0
0
POLYLINE
8
0
66
1
40
0.016000
41
0.016000
0
VERTEX
8
0
10
1.550000
20
-1.250000
0
VERTEX
8
0
10
1.550000
20
-1.150000
0
SEQEND
8
0
0
TEXT
8
0
10
1.648000
20
-0.977000
40
0.120000
41
0.666667
1
R2
0
TEXT
8
0
10
1.648000
20
-1.082000
40
0.080000
41
1.000000
1
1k
0
CIRCLE
8
0
10
1.950000
20
-0.650000
40
0.020000
0
CIRCLE
8
0
10
1.550000
20
-1.400000
40
0.120000
0
POLYLINE
8
0
66
1
40
0.015000
41
0.015000
0
VERTEX
8
0
10
1.600000
20
-1.450000
0
VERTEX
8
0
10
1.500000
20
-1.450000
0
SEQEND
8
0
0
POLYLINE
8
0
66
1
40
0.016000
41
0.016000
0
VERTEX
8
0
10
1.550000
20
-1.300000
0
VERTEX
8
0
10
1.550000
20
-1.370000
0
SEQEND
8
0
0
POLYLINE
8
0
66
1
40
0.016000
41
0.016000
0
VERTEX
8
0
10
1.550000
20
-1.450000
0
VERTEX
8
0
10
1.550000
20
-1.500000
0
SEQEND
8
0
0
POLYLINE
8
0
66
1
40
0.015000
41
0.015000
0
VERTEX
8
0
10
1.550000
20
-1.450000
0
VERTEX
8
0
10
1.490000
20
-1.370000
0
VERTEX
8
0
10
1.610000
20
-1.370000
0
VERTEX
8
0
10
1.550000
20
-1.450000
0
SEQEND
8
0
0
POLYLINE
8
0
66
1
40
0.016000
41
0.016000
0
VERTEX
8
0
10
1.550000
20
-1.200000
0
VERTEX
8
0
10
1.550000
20
-1.300000
0
SEQEND
8
0
0
POLYLINE
8
0
66
1
40
0.016000
41
0.016000
0
VERTEX
8
0
10
1.550000
20
-1.600000
0
VERTEX
8
0
10
1.550000
20
-1.500000
0
SEQEND
8
0
0
TEXT
8
0
10
1.678000
20
-1.407000
40
0.120000
41
0.666667
1
D1
0
CIRCLE
8
0
10
2.700000
20
-1.600000
40
0.020000
0
CIRCLE
8
0
10
1.950000
20
-1.600000
40
0.020000
0
CIRCLE
8
0
10
1.550000
20
-0.650000
40
0.020000
0
CIRCLE
8
0
10
1.550000
20
-1.600000
40
0.020000
0
CIRCLE
8
0
10
3.400000
20
-0.650000
40
0.020000
0
CIRCLE
8
0
10
3.400000
20
-1.600000
40
0.020000
0
CIRCLE
8
0
10
4.060000
20
-1.600000
40
0.040000
0
POLYLINE
8
0
66
1
40
0.016000
41
0.016000
0
VERTEX
8
0
10
4.020000
20
-1.600000
0
VERTEX
8
0
10
3.900000
20
-1.600000
0
SEQEND
8
0
0
CIRCLE
8
0
10
4.060000
20
-0.650000
40
0.040000
0
POLYLINE
8
0
66
1
40
0.016000
41
0.016000
0
VERTEX
8
0
10
4.020000
20
-0.650000
0
VERTEX
8
0
10
3.900000
20
-0.650000
0
SEQEND
8
0
0
POLYLINE
8
0
66
1
40
0.016000
41
0.016000
0
VERTEX
8
0
10
1.150000
20
-1.300000
0
VERTEX
8
0
10
1.350000
20
-1.300000
0
VERTEX
8
0
10
1.350000
20
-1.000000
0
VERTEX
8
0
10
1.150000
20
-1.000000
0
VERTEX
8
0
10
1.150000
20
-1.300000
0
SEQEND
8
0
0
POLYLINE
8
0
66
1
40
0.016000
41
0.016000
0
VERTEX
8
0
10
1.220000
20
-1.100000
0
VERTEX
8
0
10
1.150000
20
-1.100000
0
SEQEND
8
0
0
CIRCLE
8
0
10
1.250000
20
-1.100000
40
0.030000
0
POLYLINE
8
0
66
1
40
0.016000
41
0.016000
0
VERTEX
8
0
10
1.220000
20
-1.200000
0
VERTEX
8
0
10
1.150000
20
-1.200000
0
SEQEND
8
0
0
CIRCLE
8
0
10
1.250000
20
-1.200000
40
0.030000
0
POLYLINE
8
0
66
1
40
0.016000
41
0.016000
0
VERTEX
8
0
10
0.950000
20
-1.100000
0
VERTEX
8
0
10
1.150000
20
-1.100000
0
SEQEND
8
0
0
TEXT
8
0
10
0.970000
20
-1.090000
40
0.080000
41
1.000000
1
1
0
POLYLINE
8
0
66
1
40
0.016000
41
0.016000
0
VERTEX
8
0
10
0.950000
20
-1.200000
0
VERTEX
8
0
10
1.150000
20
-1.200000
0
SEQEND
8
0
0
TEXT
8
0
10
0.970000
20
-1.190000
40
0.080000
41
1.000000
1
2
0
TEXT
8
0
10
1.142000
20
-0.977000
40
0.120000
41
0.666667
1
9V
0
TEXT
8
0
10
1.142000
20
-1.398000
40
0.080000
41
1.000000
1
9V
0
CIRCLE
8
0
10
0.950000
20
-0.650000
40
0.020000
0
CIRCLE
8
0
10
0.950000
20
-1.600000
40
0.020000
0
POLYLINE
8
0
66
1
40
0.016000
41
0.016000
0
VERTEX
8
0
10
0.450000
20
0.300000
0
VERTEX
8
0
10
0.950000
20
0.300000
0
VERTEX
8
0
10
0.950000
20
0.500000
0
VERTEX
8
0
10
0.450000
20
0.500000
0
VERTEX
8
0
10
0.450000
20
0.300000
0
SEQEND
8
0
0
POLYLINE
8
0
66
1
40
0.016000
41
0.016000
0
VERTEX
8
0
10
0.550000
20
0.370000
0
VERTEX
8
0
10
0.550000
20
0.300000
0
SEQEND
8
0
0
CIRCLE
8
0
10
0.550000
20
0.400000
40
0.030000
0
POLYLINE
8
0
66
1
40
0.016000
41
0.016000
0
VERTEX
8
0
10
0.650000
20
0.370000
0
VERTEX
8
0
10
0.650000
20
0.300000
0
SEQEND
8
0
0
CIRCLE
8
0
10
0.650000
20
0.400000
40
0.030000
0
POLYLINE
8
0
66
1
40
0.016000
41
0.016000
0
VERTEX
8
0
10
0.750000
20
0.370000
0
VERTEX
8
0
10
0.750000
20
0.300000
0
SEQEND
8
0
0
CIRCLE
8
0
10
0.750000
20
0.400000
40
0.030000
0
POLYLINE
8
0
66
1
40
0.016000
41
0.016000
0
VERTEX
8
0
10
0.850000
20
0.370000
0
VERTEX
8
0
10
0.850000
20
0.300000
0
SEQEND
8
0
0
CIRCLE
8
0
10
0.850000
20
0.400000
40
0.030000
0
POLYLINE
8
0
66
1
40
0.016000
41
0.016000
0
VERTEX
8
0
10
0.550000
20
0.100000
0
VERTEX
8
0
10
0.550000
20
0.300000
0
SEQEND
8
0
0
TEXT
8
0
10
0.540000
20
0.120000
40
0.080000
41
1.000000
50
90.000000
1
1
0
POLYLINE
8
0
66
1
40
0.016000
41
0.016000
0
VERTEX
8
0
10
0.650000
20
0.100000
0
VERTEX
8
0
10
0.650000
20
0.300000
0
SEQEND
8
0
0
TEXT
8
0
10
0.640000
20
0.120000
40
0.080000
41
1.000000
50
90.000000
1
2
0
POLYLINE
8
0
66
1
40
0.016000
41
0.016000
0
VERTEX
8
0
10
0.750000
20
0.100000
0
VERTEX
8
0
10
0.750000
20
0.300000
0
SEQEND
8
0
0
TEXT
8
0
10
0.740000
20
0.120000
40
0.080000
41
1.000000
50
90.000000
1
3
0
POLYLINE
8
0
66
1
40
0.016000
41
0.016000
0
VERTEX
8
0
10
0.850000
20
0.100000
0
VERTEX
8
0
10
0.850000
20
0.300000
0
SEQEND
8
0
0
TEXT
8
0
10
0.840000
20
0.120000
40
0.080000
41
1.000000
50
90.000000
1
4
0
TEXT
8
0
10
0.442000
20
0.723000
40
0.120000
41
0.666667
1
HC-SR 04
0
TEXT
8
0
10
0.442000
20
0.618000
40
0.080000
41
1.000000
1
HC-SR 04
0
CIRCLE
8
0
10
0.850000
20
0.000000
40
0.020000
0
CIRCLE
8
0
10
0.750000
20
0.000000
40
0.020000
0
CIRCLE
8
0
10
0.650000
20
0.000000
40
0.020000
0
CIRCLE
8
0
10
0.550000
20
0.000000
40
0.020000
0
POLYLINE
8
0
66
1
40
0.016000
41
0.016000
0
VERTEX
8
0
10
1.100000
20
0.100000
0
VERTEX
8
0
10
2.600000
20
0.100000
0
VERTEX
8
0
10
2.600000
20
0.300000
0
VERTEX
8
0
10
1.100000
20
0.300000
0
VERTEX
8
0
10
1.100000
20
0.100000
0
SEQEND
8
0
0
POLYLINE
8
0
66
1
40
0.016000
41
0.016000
0
VERTEX
8
0
10
1.200000
20
0.170000
0
VERTEX
8
0
10
1.200000
20
0.100000
0
SEQEND
8
0
0
CIRCLE
8
0
10
1.200000
20
0.200000
40
0.030000
0
POLYLINE
8
0
66
1
40
0.016000
41
0.016000
0
VERTEX
8
0
10
1.300000
20
0.170000
0
VERTEX
8
0
10
1.300000
20
0.100000
0
SEQEND
8
0
0
CIRCLE
8
0
10
1.300000
20
0.200000
40
0.030000
0
POLYLINE
8
0
66
1
40
0.016000
41
0.016000
0
VERTEX
8
0
10
1.400000
20
0.170000
0
VERTEX
8
0
10
1.400000
20
0.100000
0
SEQEND
8
0
0
CIRCLE
8
0
10
1.400000
20
0.200000
40
0.030000
0
POLYLINE
8
0
66
1
40
0.016000
41
0.016000
0
VERTEX
8
0
10
1.500000
20
0.170000
0
VERTEX
8
0
10
1.500000
20
0.100000
0
SEQEND
8
0
0
CIRCLE
8
0
10
1.500000
20
0.200000
40
0.030000
0
POLYLINE
8
0
66
1
40
0.016000
41
0.016000
0
VERTEX
8
0
10
1.600000
20
0.170000
0
VERTEX
8
0
10
1.600000
20
0.100000
0
SEQEND
8
0
0
CIRCLE
8
0
10
1.600000
20
0.200000
40
0.030000
0
POLYLINE
8
0
66
1
40
0.016000
41
0.016000
0
VERTEX
8
0
10
1.700000
20
0.170000
0
VERTEX
8
0
10
1.700000
20
0.100000
0
SEQEND
8
0
0
CIRCLE
8
0
10
1.700000
20
0.200000
40
0.030000
0
POLYLINE
8
0
66
1
40
0.016000
41
0.016000
0
VERTEX
8
0
10
1.800000
20
0.170000
0
VERTEX
8
0
10
1.800000
20
0.100000
0
SEQEND
8
0
0
CIRCLE
8
0
10
1.800000
20
0.200000
40
0.030000
0
POLYLINE
8
0
66
1
40
0.016000
41
0.016000
0
VERTEX
8
0
10
1.900000
20
0.170000
0
VERTEX
8
0
10
1.900000
20
0.100000
0
SEQEND
8
0
0
CIRCLE
8
0
10
1.900000
20
0.200000
40
0.030000
0
POLYLINE
8
0
66
1
40
0.016000
41
0.016000
0
VERTEX
8
0
10
2.000000
20
0.170000
0
VERTEX
8
0
10
2.000000
20
0.100000
0
SEQEND
8
0
0
CIRCLE
8
0
10
2.000000
20
0.200000
40
0.030000
0
POLYLINE
8
0
66
1
40
0.016000
41
0.016000
0
VERTEX
8
0
10
2.100000
20
0.170000
0
VERTEX
8
0
10
2.100000
20
0.100000
0
SEQEND
8
0
0
CIRCLE
8
0
10
2.100000
20
0.200000
40
0.030000
0
POLYLINE
8
0
66
1
40
0.016000
41
0.016000
0
VERTEX
8
0
10
2.200000
20
0.170000
0
VERTEX
8
0
10
2.200000
20
0.100000
0
SEQEND
8
0
0
CIRCLE
8
0
10
2.200000
20
0.200000
40
0.030000
0
POLYLINE
8
0
66
1
40
0.016000
41
0.016000
0
VERTEX
8
0
10
2.300000
20
0.170000
0
VERTEX
8
0
10
2.300000
20
0.100000
0
SEQEND
8
0
0
CIRCLE
8
0
10
2.300000
20
0.200000
40
0.030000
0
POLYLINE
8
0
66
1
40
0.016000
41
0.016000
0
VERTEX
8
0
10
2.400000
20
0.170000
0
VERTEX
8
0
10
2.400000
20
0.100000
0
SEQEND
8
0
0
CIRCLE
8
0
10
2.400000
20
0.200000
40
0.030000
0
POLYLINE
8
0
66
1
40
0.016000
41
0.016000
0
VERTEX
8
0
10
2.500000
20
0.170000
0
VERTEX
8
0
10
2.500000
20
0.100000
0
SEQEND
8
0
0
CIRCLE
8
0
10
2.500000
20
0.200000
40
0.030000
0
POLYLINE
8
0
66
1
40
0.016000
41
0.016000
0
VERTEX
8
0
10
1.200000
20
-0.100000
0
VERTEX
8
0
10
1.200000
20
0.100000
0
SEQEND
8
0
0
TEXT
8
0
10
1.190000
20
-0.080000
40
0.080000
41
1.000000
50
90.000000
1
1
0
POLYLINE
8
0
66
1
40
0.016000
41
0.016000
0
VERTEX
8
0
10
1.300000
20
-0.100000
0
VERTEX
8
0
10
1.300000
20
0.100000
0
SEQEND
8
0
0
TEXT
8
0
10
1.290000
20
-0.080000
40
0.080000
41
1.000000
50
90.000000
1
2
0
POLYLINE
8
0
66
1
40
0.016000
41
0.016000
0
VERTEX
8
0
10
1.400000
20
-0.100000
0
VERTEX
8
0
10
1.400000
20
0.100000
0
SEQEND
8
0
0
TEXT
8
0
10
1.390000
20
-0.080000
40
0.080000
41
1.000000
50
90.000000
1
3
0
POLYLINE
8
0
66
1
40
0.016000
41
0.016000
0
VERTEX
8
0
10
1.500000
20
-0.100000
0
VERTEX
8
0
10
1.500000
20
0.100000
0
SEQEND
8
0
0
TEXT
8
0
10
1.490000
20
-0.080000
40
0.080000
41
1.000000
50
90.000000
1
4
0
POLYLINE
8
0
66
1
40
0.016000
41
0.016000
0
VERTEX
8
0
10
1.600000
20
-0.100000
0
VERTEX
8
0
10
1.600000
20
0.100000
0
SEQEND
8
0
0
TEXT
8
0
10
1.590000
20
-0.080000
40
0.080000
41
1.000000
50
90.000000
1
5
0
POLYLINE
8
0
66
1
40
0.016000
41
0.016000
0
VERTEX
8
0
10
1.700000
20
-0.100000
0
VERTEX
8
0
10
1.700000
20
0.100000
0
SEQEND
8
0
0
TEXT
8
0
10
1.690000
20
-0.080000
40
0.080000
41
1.000000
50
90.000000
1
6
0
POLYLINE
8
0
66
1
40
0.016000
41
0.016000
0
VERTEX
8
0
10
1.800000
20
-0.100000
0
VERTEX
8
0
10
1.800000
20
0.100000
0
SEQEND
8
0
0
TEXT
8
0
10
1.790000
20
-0.080000
40
0.080000
41
1.000000
50
90.000000
1
7
0
POLYLINE
8
0
66
1
40
0.016000
41
0.016000
0
VERTEX
8
0
10
1.900000
20
-0.100000
0
VERTEX
8
0
10
1.900000
20
0.100000
0
SEQEND
8
0
0
TEXT
8
0
10
1.890000
20
-0.080000
40
0.080000
41
1.000000
50
90.000000
1
8
0
POLYLINE
8
0
66
1
40
0.016000
41
0.016000
0
VERTEX
8
0
10
2.000000
20
-0.100000
0
VERTEX
8
0
10
2.000000
20
0.100000
0
SEQEND
8
0
0
TEXT
8
0
10
1.990000
20
-0.080000
40
0.080000
41
1.000000
50
90.000000
1
9
0
POLYLINE
8
0
66
1
40
0.016000
41
0.016000
0
VERTEX
8
0
10
2.100000
20
-0.100000
0
VERTEX
8
0
10
2.100000
20
0.100000
0
SEQEND
8
0
0
TEXT
8
0
10
2.090000
20
-0.160000
40
0.080000
41
1.000000
50
90.000000
1
10
0
POLYLINE
8
0
66
1
40
0.016000
41
0.016000
0
VERTEX
8
0
10
2.200000
20
-0.100000
0
VERTEX
8
0
10
2.200000
20
0.100000
0
SEQEND
8
0
0
TEXT
8
0
10
2.190000
20
-0.160000
40
0.080000
41
1.000000
50
90.000000
1
11
0
POLYLINE
8
0
66
1
40
0.016000
41
0.016000
0
VERTEX
8
0
10
2.300000
20
-0.100000
0
VERTEX
8
0
10
2.300000
20
0.100000
0
SEQEND
8
0
0
TEXT
8
0
10
2.290000
20
-0.160000
40
0.080000
41
1.000000
50
90.000000
1
12
0
POLYLINE
8
0
66
1
40
0.016000
41
0.016000
0
VERTEX
8
0
10
2.400000
20
-0.100000
0
VERTEX
8
0
10
2.400000
20
0.100000
0
SEQEND
8
0
0
TEXT
8
0
10
2.390000
20
-0.160000
40
0.080000
41
1.000000
50
90.000000
1
13
0
POLYLINE
8
0
66
1
40
0.016000
41
0.016000
0
VERTEX
8
0
10
2.500000
20
-0.100000
0
VERTEX
8
0
10
2.500000
20
0.100000
0
SEQEND
8
0
0
TEXT
8
0
10
2.490000
20
-0.160000
40
0.080000
41
1.000000
50
90.000000
1
14
0
TEXT
8
0
10
1.092000
20
0.523000
40
0.120000
41
0.666667
1
LCD
0
TEXT
8
0
10
1.092000
20
0.418000
40
0.080000
41
1.000000
1
CONN-SIL14
0
CIRCLE
8
0
10
1.200000
20
-0.200000
40
0.020000
0
CIRCLE
8
0
10
1.300000
20
-0.200000
40
0.020000
0
CIRCLE
8
0
10
1.400000
20
-0.200000
40
0.020000
0
CIRCLE
8
0
10
1.500000
20
-0.200000
40
0.020000
0
CIRCLE
8
0
10
1.600000
20
-0.200000
40
0.020000
0
CIRCLE
8
0
10
1.700000
20
-0.200000
40
0.020000
0
CIRCLE
8
0
10
2.500000
20
-0.200000
40
0.020000
0
CIRCLE
8
0
10
2.400000
20
-0.200000
40
0.020000
0
CIRCLE
8
0
10
2.300000
20
-0.200000
40
0.020000
0
CIRCLE
8
0
10
2.200000
20
-0.200000
40
0.020000
0
POLYLINE
8
0
66
1
40
0.016000
41
0.016000
0
VERTEX
8
0
10
2.600000
20
0.100000
0
VERTEX
8
0
10
2.900000
20
0.100000
0
VERTEX
8
0
10
2.900000
20
0.300000
0
VERTEX
8
0
10
2.600000
20
0.300000
0
VERTEX
8
0
10
2.600000
20
0.100000
0
SEQEND
8
0
0
POLYLINE
8
0
66
1
40
0.016000
41
0.016000
0
VERTEX
8
0
10
2.700000
20
0.170000
0
VERTEX
8
0
10
2.700000
20
0.100000
0
SEQEND
8
0
0
CIRCLE
8
0
10
2.700000
20
0.200000
40
0.030000
0
POLYLINE
8
0
66
1
40
0.016000
41
0.016000
0
VERTEX
8
0
10
2.800000
20
0.170000
0
VERTEX
8
0
10
2.800000
20
0.100000
0
SEQEND
8
0
0
CIRCLE
8
0
10
2.800000
20
0.200000
40
0.030000
0
POLYLINE
8
0
66
1
40
0.016000
41
0.016000
0
VERTEX
8
0
10
2.700000
20
-0.100000
0
VERTEX
8
0
10
2.700000
20
0.100000
0
SEQEND
8
0
0
TEXT
8
0
10
2.690000
20
-0.080000
40
0.080000
41
1.000000
50
90.000000
1
1
0
POLYLINE
8
0
66
1
40
0.016000
41
0.016000
0
VERTEX
8
0
10
2.800000
20
-0.100000
0
VERTEX
8
0
10
2.800000
20
0.100000
0
SEQEND
8
0
0
TEXT
8
0
10
2.790000
20
-0.080000
40
0.080000
41
1.000000
50
90.000000
1
2
0
TEXT
8
0
10
2.592000
20
0.523000
40
0.120000
41
0.666667
1
A-K(LCD)
0
TEXT
8
0
10
2.592000
20
0.418000
40
0.080000
41
1.000000
1
A-K (LCD)
0
CIRCLE
8
0
10
2.700000
20
-0.200000
40
0.020000
0
CIRCLE
8
0
10
2.800000
20
-0.200000
40
0.020000
0
POLYLINE
8
0
66
1
40
0.016000
41
0.016000
0
VERTEX
8
0
10
4.350000
20
-1.250000
0
VERTEX
8
0
10
4.550000
20
-1.250000
0
VERTEX
8
0
10
4.550000
20
-0.950000
0
VERTEX
8
0
10
4.350000
20
-0.950000
0
VERTEX
8
0
10
4.350000
20
-1.250000
0
SEQEND
8
0
0
POLYLINE
8
0
66
1
40
0.016000
41
0.016000
0
VERTEX
8
0
10
4.420000
20
-1.050000
0
VERTEX
8
0
10
4.350000
20
-1.050000
0
SEQEND
8
0
0
CIRCLE
8
0
10
4.450000
20
-1.050000
40
0.030000
0
POLYLINE
8
0
66
1
40
0.016000
41
0.016000
0
VERTEX
8
0
10
4.420000
20
-1.150000
0
VERTEX
8
0
10
4.350000
20
-1.150000
0
SEQEND
8
0
0
CIRCLE
8
0
10
4.450000
20
-1.150000
40
0.030000
0
POLYLINE
8
0
66
1
40
0.016000
41
0.016000
0
VERTEX
8
0
10
4.150000
20
-1.050000
0
VERTEX
8
0
10
4.350000
20
-1.050000
0
SEQEND
8
0
0
TEXT
8
0
10
4.170000
20
-1.040000
40
0.080000
41
1.000000
1
1
0
POLYLINE
8
0
66
1
40
0.016000
41
0.016000
0
VERTEX
8
0
10
4.150000
20
-1.150000
0
VERTEX
8
0
10
4.350000
20
-1.150000
0
SEQEND
8
0
0
TEXT
8
0
10
4.170000
20
-1.140000
40
0.080000
41
1.000000
1
2
0
TEXT
8
0
10
4.342000
20
-0.927000
40
0.120000
41
0.666667
1
5V
0
CIRCLE
8
0
10
3.900000
20
-0.650000
40
0.020000
0
CIRCLE
8
0
10
3.900000
20
-1.600000
40
0.020000
0
POLYLINE
8
0
66
1
40
0.016000
41
0.016000
0
VERTEX
8
0
10
0.900000
20
-0.450000
0
VERTEX
8
0
10
0.950000
20
-0.350000
0
VERTEX
8
0
10
1.000000
20
-0.450000
0
VERTEX
8
0
10
0.900000
20
-0.450000
0
SEQEND
8
0
0
POLYLINE
8
0
66
1
40
0.016000
41
0.016000
0
VERTEX
8
0
10
0.950000
20
-0.550000
0
VERTEX
8
0
10
0.950000
20
-0.350000
0
SEQEND
8
0
0
TEXT
8
0
10
0.800000
20
-0.390000
40
0.080000
41
1.000000
1
9V
0
POLYLINE
8
0
66
1
40
0.016000
41
0.016000
0
VERTEX
8
0
10
0.850000
20
-1.600000
0
VERTEX
8
0
10
0.850000
20
-1.700000
0
SEQEND
8
0
0
POLYLINE
8
0
66
1
40
0.016000
41
0.016000
0
VERTEX
8
0
10
0.750000
20
-1.700000
0
VERTEX
8
0
10
0.950000
20
-1.700000
0
SEQEND
8
0
0
POLYLINE
8
0
66
1
40
0.016000
41
0.016000
0
VERTEX
8
0
10
0.800000
20
-1.750000
0
VERTEX
8
0
10
0.900000
20
-1.750000
0
SEQEND
8
0
0
POLYLINE
8
0
66
1
40
0.016000
41
0.016000
0
VERTEX
8
0
10
0.840000
20
-1.800000
0
VERTEX
8
0
10
0.860000
20
-1.800000
0
SEQEND
8
0
0
CIRCLE
8
0
10
0.850000
20
-1.600000
40
0.020000
0
ENDSEC
0
EOF

